<?xml version="1.0" encoding="UTF-8"?>
<svg id="svg2" xmlns="http://www.w3.org/2000/svg" xmlns:xlink="http://www.w3.org/1999/xlink" xmlns:svg="http://www.w3.org/2000/svg" version="1.1" viewBox="0 0 32 32">
  <!-- Generator: Adobe Illustrator 29.6.0, SVG Export Plug-In . SVG Version: 2.1.1 Build 207)  -->
  <defs>
    <style>
      .st0 {
        fill: none;
      }

      .st1 {
        fill: #121111;
      }

      .st2 {
        clip-path: url(#clippath);
      }
    </style>
    <clipPath id="clippath">
      <rect class="st0" width="32" height="32"/>
    </clipPath>
  </defs>
  <g id="g42">
    <g class="st2">
      <g id="g40">
        <g id="g38">
          <path id="path36" class="st1" d="M16,22.3c.3,0,.6,0,.8-.3s.3-.5.3-.8-.1-.6-.3-.8c-.2-.2-.5-.3-.8-.3s-.6.1-.8.3c-.2.2-.3.5-.3.8s.1.6.3.8.5.3.8.3ZM15,17.4h2v-8h-2v8ZM16,28.7c-1.8,0-3.4-.3-4.9-1-1.5-.7-2.9-1.6-4-2.7-1.1-1.1-2-2.5-2.7-4-.7-1.5-1-3.2-1-4.9s.3-3.4,1-5c.7-1.5,1.6-2.9,2.7-4,1.1-1.1,2.5-2,4-2.7,1.5-.7,3.2-1,4.9-1s3.4.3,5,1c1.5.7,2.9,1.6,4,2.7s2,2.5,2.7,4c.7,1.5,1,3.2,1,5s-.3,3.4-1,4.9c-.7,1.5-1.6,2.9-2.7,4-1.1,1.1-2.5,2-4,2.7-1.5.7-3.2,1-5,1Z"/>
        </g>
      </g>
    </g>
  </g>
</svg>