<?xml version="1.0" encoding="UTF-8"?>
<svg id="svg2" xmlns="http://www.w3.org/2000/svg" xmlns:svg="http://www.w3.org/2000/svg" version="1.1" viewBox="0 0 32 32">
  <!-- Generator: Adobe Illustrator 29.6.0, SVG Export Plug-In . SVG Version: 2.1.1 Build 207)  -->
  <defs>
    <style>
      .st0 {
        fill: #121111;
      }
    </style>
  </defs>
  <path id="path36" class="st0" d="M12.6,8.4c.2.2.4.5.4.9s-.1.6-.4.9l-5.3,5.2h18.8c.3,0,.6.1.9.3.2.2.3.5.3.9s-.1.6-.3.9c-.2.2-.5.3-.9.3H7.3l5.3,5.3c.2.2.3.5.3.8s-.1.6-.4.8c-.2.3-.5.4-.8.4s-.6-.1-.9-.4l-7.1-7.1c-.1-.1-.2-.3-.3-.5,0-.2,0-.4,0-.5s0-.4,0-.5c0-.2.2-.3.3-.5l7.2-7.2c.2-.2.5-.4.8-.4s.6.1.8.4Z"/>
</svg>