<?xml version="1.0" encoding="UTF-8"?>
<svg id="svg2" xmlns="http://www.w3.org/2000/svg" xmlns:svg="http://www.w3.org/2000/svg" version="1.1" viewBox="0 0 32 32">
  <!-- Generator: Adobe Illustrator 29.6.0, SVG Export Plug-In . SVG Version: 2.1.1 Build 207)  -->
  <defs>
    <style>
      .st0 {
        fill: #121111;
      }
    </style>
  </defs>
  <path id="path36" class="st0" d="M24.1,13.8c-.2.2-.5.4-.9.4s-.6-.1-.9-.4l-5.2-5.3v18.8c0,.3-.1.6-.3.9-.2.2-.5.3-.9.3s-.6-.1-.9-.3c-.2-.2-.3-.5-.3-.9V8.5l-5.3,5.3c-.2.2-.5.3-.8.3s-.6-.1-.8-.4c-.3-.2-.4-.5-.4-.8s.1-.6.4-.9l7.1-7.1c.1-.1.3-.2.5-.3.2,0,.4,0,.5,0s.4,0,.5,0c.2,0,.3.2.5.3l7.2,7.2c.2.2.4.5.4.8s-.1.6-.4.8Z"/>
</svg>