<?xml version="1.0" encoding="UTF-8" standalone="no"?>
<!-- Created with Inkscape (http://www.inkscape.org/) -->

<svg
   version="1.1"
   id="svg2"
   width="281.98996"
   height="554.33643"
   viewBox="0 0 281.98996 554.33643"
   xmlns="http://www.w3.org/2000/svg"
   xmlns:svg="http://www.w3.org/2000/svg">
  <defs
     id="defs6" />
  <g
     id="g8"
     transform="matrix(1.3333333,0,0,-1.3333333,0,554.33643)">
    <g
       id="g10">
      <path
         d="m 105.7595,324.17935 c 25.29506,0 45.78647,20.49143 45.78647,45.78647 0,25.29507 -20.49141,45.7865 -45.78647,45.7865 -25.295061,0 -45.786474,-20.49143 -45.786474,-45.7865 0,-25.29504 20.491413,-45.78647 45.786474,-45.78647 z m 59.42094,-31.54568 43.88508,-82.02071 c 5.31673,-10.20071 1.76543,-22.61821 -9.35303,-27.93492 -3.09994,-1.7838 -6.65022,-2.66704 -9.75026,-2.66704 -7.10077,0 -14.63435,3.98309 -18.18466,11.08388 L 146.05942,239.41171 166.46085,26.601257 C 167.79445,13.300598 158.04419,1.333466 144.74353,-3.1e-5 h -2.21678 c -12.39975,0 -22.60055,9.299805 -23.93408,21.717286 L 105.29202,159.60956 91.991356,21.717255 C 91.108192,9.317505 80.474762,-3.1e-5 68.057266,-3.1e-5 H 65.840485 C 52.539829,1.333557 42.789654,13.300598 44.123177,26.601257 L 64.524612,239.41171 38.806461,191.09488 C 35.256073,183.99428 28.155291,180.011 20.621798,180.011 c -3.09994,0 -6.650246,0.90053 -9.750275,2.66704 -10.183161,5.31671 -13.73337,17.73421 -8.416653,27.93492 l 43.452357,82.02071 c 7.98394,15.06695 23.50138,24.38452 40.352432,24.38452 h 38.568361 c 16.85104,0 32.36847,-9.31757 40.35242,-24.38452 z"
         style="fill:#121111;fill-opacity:1;fill-rule:evenodd;stroke:none"
         id="path12" />
    </g>
  </g>
</svg>
