<?xml version="1.0" encoding="UTF-8"?>
<svg id="svg2" xmlns="http://www.w3.org/2000/svg" xmlns:svg="http://www.w3.org/2000/svg" version="1.1" viewBox="0 0 520 1125.3">
  <!-- Generator: Adobe Illustrator 29.6.0, SVG Export Plug-In . SVG Version: 2.1.1 Build 207)  -->
  <path id="path40" d="M470.1,540.7l2.4-1.2h0s0,0,0,0l-2.4,1.3h0ZM381,374.1l-2.4,1.2h0s2.4-1.2,2.4-1.2h0ZM138.7,374.1l-2.4-1.2h0s2.4,1.2,2.4,1.2ZM50.4,540.7l-2.4-1.2h0s2.4,1.2,2.4,1.2ZM67.5,597.4l1.3-2.3h0s0,0,0,0l-1.2,2.4h0ZM124.3,580.3l-2.4-1.3h0s0,0,0,0l2.4,1.2ZM176.5,482.2l2.7.2-5-1.5,2.4,1.3ZM135.1,946.3l2.7.3h0s0,0,0,0l-2.7-.2h0ZM179.2,1000.3l-.3,2.7h.1s.1,0,.1,0v-2.7ZM232.3,956.2l-2.7-.3h0s0,0,0,0l2.7.2h0ZM259.3,676.1l2.7-.3h-5.3l2.7.3ZM286.3,956.2l-2.7.3h0s0,0,0,0l2.7-.3h0ZM339.5,1000.3v2.7h.3s-.3-2.7-.3-2.7ZM383.6,946.3l-2.7.2h0s0,0,0,0l2.7-.3h0ZM342.1,482.2l2.4-1.3-5,1.5,2.7-.2ZM394.4,580.3l2.4-1.2h0s0,0,0,0l-2.4,1.3h0ZM451.1,597.4l-1.2-2.4h0s0,0,0,0l1.3,2.3h0ZM472.5,539.4l-89.1-166.6-4.7,2.5,89.1,166.6,4.7-2.5ZM383.3,372.8c-16.7-31.5-49.1-50.9-84.3-50.9v5.3c33.2,0,63.9,18.4,79.6,48.1l4.7-2.5ZM299,321.9h-78.3v5.3h78.3v-5.3ZM220.7,321.9c-35.2,0-67.6,19.5-84.3,50.9l4.7,2.5c15.8-29.7,46.4-48.1,79.6-48.1v-5.3ZM136.3,372.8l-88.3,166.6,4.7,2.5,88.3-166.6-4.7-2.5ZM48.1,539.5c-11.4,22-3.8,48.8,18.2,60.3l2.5-4.7c-19.3-10.1-26.1-33.7-16-53.1l-4.7-2.5ZM66.2,599.8c6.7,3.8,14.4,5.8,21.1,5.8v-5.3c-5.8,0-12.6-1.7-18.5-5.1l-2.6,4.6ZM87.3,605.5c16.2,0,31.6-8.6,39.3-24l-4.8-2.4c-6.7,13.5-20.2,21-34.6,21v5.3ZM126.6,581.6l52.2-98.1-4.7-2.5-52.2,98.1,4.7,2.5ZM173.8,482l-41.4,464.1,5.3.5,41.4-464.1-5.3-.5ZM132.4,946c-2.9,28.5,18,54.1,46.5,57l.5-5.3c-25.5-2.6-44.3-25.6-41.7-51.1l-5.3-.5ZM179.2,1003h4.5v-5.3h-4.5v5.3ZM183.7,1003c26.5,0,49.4-19.9,51.3-46.6l-5.3-.4c-1.7,23.7-22,41.6-46,41.6v5.3ZM235,956.5l27-280.1-5.3-.5-27,280.1,5.3.5ZM256.7,676.4l27,280.1,5.3-.5-27-280.1-5.3.5ZM283.7,956.5c2.9,26.6,24.7,46.5,51.3,46.5v-5.3c-23.8,0-43.4-17.8-46-41.7l-5.3.6ZM334.9,1003h4.5v-5.3h-4.5v5.3ZM339.7,1003c28.5-2.9,49.4-28.5,46.5-57l-5.3.5c2.6,25.6-16.2,48.6-41.7,51.1,0,0,.5,5.3.5,5.3ZM386.2,946l-41.4-464.1-5.3.5,41.4,464.1,5.3-.5ZM339.8,483.4l52.2,98.1,4.7-2.5-52.2-98.1-4.7,2.5ZM392,581.5c7.7,15.4,24,24,39.3,24v-5.3c-13.5,0-27.8-7.6-34.6-21l-4.8,2.4ZM431.3,605.5c6.8,0,14.4-1.9,21.1-5.8l-2.7-4.6c-5.9,3.4-12.6,5.1-18.5,5.1v5.3ZM452.3,599.8c24-11.5,31.7-38.4,20.2-60.4l-4.7,2.5c10.1,19.4,3.4,43-17.8,53.1l2.3,4.8Z"/>
  <path d="M470.1,540.7l-89.1-166.6c-16.2-30.6-47.7-49.5-82-49.5h-78.3c-34.2,0-65.7,18.9-82,49.5l-88.3,166.6c-10.8,20.7-3.6,45.9,17.1,56.7,6.3,3.6,13.5,5.4,19.8,5.4,15.3,0,29.7-8.1,36.9-22.5l52.2-98.1-41.4,464.1c-2.7,27,17.1,51.3,44.1,54h4.5c25.2,0,46.8-18.9,48.6-44.1l27-280.1,27,280.1c2.7,25.2,23.4,44.1,48.6,44.1h4.5c27-2.7,46.8-27,44.1-54l-41.4-464.1,52.2,98.1c7.2,14.4,22.5,22.5,36.9,22.5s13.5-1.8,19.8-5.4c22.6-10.8,29.8-36,19-56.7h0Z"/>
  <path d="M348.1,212c0,48.6-39.4,88-88,88s-88-39.4-88-88,39.4-88,88-88,88,39.4,88,88Z"/>
  <path id="path24" d="M345.5,212c0,47.1-38.2,85.3-85.3,85.3v5.3c50.1,0,90.7-40.6,90.7-90.7h-5.3ZM260.1,297.3c-47.1,0-85.3-38.2-85.3-85.3h-5.3c0,50.1,40.6,90.7,90.7,90.7v-5.3ZM174.8,212c0-47.1,38.2-85.3,85.3-85.3v-5.3c-50.1,0-90.7,40.6-90.7,90.7h5.3ZM260.1,126.7c47.1,0,85.3,38.2,85.3,85.3h5.3c0-50.1-40.6-90.7-90.7-90.7v5.3Z"/>
  <path id="path14" d="M348.1,212c0,48.6-39.4,88-88,88s-88-39.4-88-88,39.4-88,88-88,88,39.4,88,88Z"/>
</svg>