<?xml version="1.0" encoding="UTF-8" standalone="no"?>
<!-- Created with Inkscape (http://www.inkscape.org/) -->

<svg
   version="1.1"
   id="svg2"
   width="387.77783"
   height="409.32047"
   viewBox="0 0 387.77783 409.32047"
   xmlns="http://www.w3.org/2000/svg"
   xmlns:svg="http://www.w3.org/2000/svg">
  <defs
     id="defs6" />
  <g
     id="g8"
     transform="matrix(1.3333333,0,0,-1.3333333,0,409.32047)">
    <g
       id="g10">
      <path
         d="m 242.36111,297.2959 c 0,2.74676 0.92745,5.04757 2.78231,6.90246 1.86134,1.86133 4.16537,2.792 6.91214,2.792 h 29.08333 c 2.74673,0 5.05078,-0.93067 6.9121,-2.792 1.85489,-1.85489 2.78232,-4.1557 2.78232,-6.90246 v -29.08332 c 0,-2.74676 -0.92743,-5.05081 -2.78232,-6.91213 -1.86132,-1.85489 -4.16537,-2.78232 -6.9121,-2.78232 -2.74677,0 -5.04758,0.92743 -6.90247,2.78232 -1.86133,1.86132 -2.79199,4.16537 -2.79199,6.91213 v 19.38889 h -19.38887 c -2.74677,0 -5.0508,0.92743 -6.91214,2.78232 -1.85486,1.86133 -2.78231,4.16537 -2.78231,6.91211 z M 2.792001,261.30045 c 1.854871,-1.85489 4.155684,-2.78232 6.902444,-2.78232 2.746759,0 5.050806,0.92743 6.91214,2.78232 1.854869,1.86132 2.782304,4.16537 2.782304,6.91213 v 19.38889 h 19.38889 c 2.746757,0 5.050804,0.93066 6.912136,2.79199 1.85487,1.85489 2.782306,4.1557 2.782306,6.90244 0,2.74676 -0.927436,5.05081 -2.782306,6.91214 -1.861332,1.85489 -4.165379,2.78232 -6.912136,2.78232 H 9.694445 c -2.74676,0 -5.047573,-0.92743 -6.902444,-2.78232 C 0.930668,302.34671 0,300.04266 0,297.2959 v -29.08332 c 0,-2.74676 0.930668,-5.05081 2.792001,-6.91213 z m 0,-215.610539 c 1.854871,1.854889 4.155684,2.782318 6.902444,2.782318 2.746759,0 5.050806,-0.927429 6.91214,-2.782318 1.854869,-1.861328 2.782304,-4.165375 2.782304,-6.91214 V 19.388885 h 19.38889 c 2.746757,0 5.050804,-0.930664 6.912136,-2.791992 1.85487,-1.854889 2.782306,-4.1557 2.782306,-6.902435 0,-2.746765 -0.927436,-5.050812 -2.782306,-6.91214 C 43.828583,0.927429 41.524536,0 38.777779,0 H 9.694445 C 6.947685,0 4.646872,0.927429 2.792001,2.782318 0.930668,4.643646 0,6.947693 0,9.694458 v 29.083313 c 0,2.746765 0.930668,5.050812 2.792001,6.91214 z M 245.14342,2.791992 c -1.85486,1.854889 -2.78231,4.155701 -2.78231,6.902435 0,2.746766 0.92745,5.050812 2.78231,6.91214 1.86134,1.854889 4.16537,2.782318 6.91214,2.782318 h 19.38887 v 19.388886 c 0,2.746765 0.93066,5.050812 2.79199,6.91214 1.85489,1.854889 4.1557,2.782318 6.90247,2.782318 2.74673,0 5.05078,-0.927429 6.9121,-2.782318 1.85489,-1.861328 2.78232,-4.165375 2.78232,-6.91214 V 9.694458 c 0,-2.746765 -0.92743,-5.047577 -2.78232,-6.902466 C 286.18967,0.930664 283.88562,0 281.13889,0 h -29.08333 c -2.74677,0 -5.0508,0.930664 -6.91214,2.791992 z"
         style="fill:#121111;fill-opacity:1;fill-rule:evenodd;stroke:none"
         id="path12" />
    </g>
    <g
       id="g14"
       transform="translate(87.25,44.434692)">
      <path
         d="m 57.541641,176.37947 c 13.762596,0 24.911614,11.14902 24.911614,24.91162 0,13.76259 -11.149018,24.91161 -24.911614,24.91161 -13.7626,0 -24.911613,-11.14902 -24.911613,-24.91161 0,-13.7626 11.149013,-24.91162 24.911613,-24.91162 z m 32.330109,-17.16261 23.87711,-44.62601 c 2.89273,-5.55003 0.96053,-12.30617 -5.08883,-15.198897 -1.68662,-0.970536 -3.61827,-1.451096 -5.30494,-1.451096 -3.863406,0 -7.962298,2.167133 -9.893954,6.030553 L 79.468346,130.25973 90.568398,14.473343 C 91.293991,7.236694 85.989044,0.725586 78.752396,3.1e-5 h -1.206108 c -6.746491,0 -12.296563,5.059875 -13.02211,11.816009 L 57.287521,86.840805 50.050869,11.81604 C 49.570354,5.06955 43.784893,3.1e-5 37.028755,3.1e-5 H 35.822643 C 28.585993,0.725632 23.281094,7.236694 24.006639,14.473343 L 35.106701,130.25973 21.113909,103.97141 c -1.931704,-3.86332 -5.795113,-6.030553 -9.893954,-6.030553 -1.686622,0 -3.618281,0.489975 -5.304952,1.451096 -5.540477,2.892727 -7.472083,9.648867 -4.579352,15.198897 l 23.641657,44.62601 c 4.343922,8.19768 12.786688,13.26719 21.955046,13.26719 h 20.984364 c 9.168357,0 17.611114,-5.06951 21.955032,-13.26719 z"
         style="fill:#121111;fill-opacity:1;fill-rule:evenodd;stroke:none"
         id="path16" />
    </g>
  </g>
</svg>
