<?xml version="1.0" encoding="UTF-8" standalone="no"?>
<!-- Created with Inkscape (http://www.inkscape.org/) -->

<svg
   version="1.1"
   id="svg2"
   width="32"
   height="32"
   viewBox="0 0 32 32"
   xmlns="http://www.w3.org/2000/svg"
   xmlns:svg="http://www.w3.org/2000/svg">
  <defs
     id="defs6" />
  <g
     id="g8"
     transform="matrix(1.3333333,0,0,-1.3333333,0,32)">
    <g
       id="g10"
       transform="translate(2,1.388916)">
      <path
         d="m 0.192,17.969084 c 0.127556,-0.127556 0.285778,-0.191332 0.474667,-0.191332 0.188888,0 0.347333,0.06378 0.475333,0.191332 0.127556,0.128 0.191333,0.286445 0.191333,0.475334 v 1.333332 h 1.333334 c 0.188888,0 0.347333,0.064 0.475333,0.192001 0.127555,0.127556 0.191333,0.285778 0.191333,0.474667 0,0.188889 -0.063778,0.347332 -0.191333,0.475332 -0.128,0.127556 -0.286445,0.191334 -0.475333,0.191334 h -2 C 0.477778,21.111084 0.319556,21.047306 0.192,20.91975 0.064,20.79175 0,20.633307 0,20.444418 v -2 C 0,18.255529 0.064,18.097084 0.192,17.969084 Z M 0.192,3.142 C 0.319556,3.269556 0.477778,3.333332 0.666667,3.333332 0.855555,3.333332 1.014,3.269556 1.142,3.142 1.269556,3.014 1.333333,2.855555 1.333333,2.666666 V 1.333334 H 2.666667 C 2.855555,1.333334 3.014,1.269333 3.142,1.141333 3.269555,1.013777 3.333333,0.855555 3.333333,0.666666 3.333333,0.477777 3.269555,0.319334 3.142,0.191334 3.014,0.063778 2.855555,0 2.666667,0 h -2 C 0.477778,0 0.319556,0.063778 0.192,0.191334 0.064,0.319334 0,0.477777 0,0.666666 v 2 C 0,2.855555 0.064,3.014 0.192,3.142 Z m 16.474666,17.302418 c 0,0.188889 0.06378,0.347111 0.191334,0.474667 0.128,0.128 0.286445,0.191999 0.475334,0.191999 h 2 c 0.188889,0 0.347332,-0.064 0.475332,-0.191999 C 19.936222,20.791529 20,20.633307 20,20.444418 v -2 c 0,-0.188889 -0.06378,-0.347334 -0.191334,-0.475334 -0.128,-0.127556 -0.286443,-0.191332 -0.475332,-0.191332 -0.18889,0 -0.347113,0.06378 -0.474667,0.191332 -0.128,0.128 -0.192001,0.286445 -0.192001,0.475334 v 1.333332 h -1.333332 c -0.188889,0 -0.347334,0.06378 -0.475334,0.191334 -0.127556,0.128 -0.191334,0.286445 -0.191334,0.475334 z M 16.858,0.191999 c -0.127556,0.127556 -0.191334,0.285778 -0.191334,0.474667 0,0.188889 0.06378,0.347334 0.191334,0.475334 0.128,0.127556 0.286445,0.191334 0.475334,0.191334 h 1.333332 v 1.333332 c 0,0.188889 0.064,0.347334 0.192001,0.475334 0.127554,0.127556 0.285777,0.191332 0.474667,0.191332 0.188889,0 0.347332,-0.063776 0.475332,-0.191332 C 19.936222,3.014 20,2.855555 20,2.666666 v -2 C 20,0.477777 19.936222,0.319555 19.808666,0.191999 19.680666,0.063999 19.522223,0 19.333334,0 h -2 C 17.144445,0 16.986,0.063999 16.858,0.191999 Z"
         style="fill:#121111;fill-opacity:1;fill-rule:evenodd;stroke:none"
         id="path12" />
    </g>
    <g
       id="g14"
       transform="translate(8,4.44458)">
      <path
         d="m 3.957016,12.129262 c 0.946425,0 1.713119,0.766694 1.713119,1.713119 0,0.946426 -0.766694,1.71312 -1.713119,1.71312 -0.946425,0 -1.71312,-0.766694 -1.71312,-1.71312 0,-0.946425 0.766695,-1.713119 1.71312,-1.713119 z M 6.18029,10.949025 7.822268,7.880188 C 8.021195,7.498524 7.888323,7.033918 7.472321,6.834991 7.356335,6.76825 7.2235,6.735203 7.107512,6.735203 c -0.265679,0 -0.547551,0.14903 -0.680387,0.414708 L 5.46487,8.957705 6.228197,0.995317 C 6.278095,0.497667 5.913285,0.049911 5.415635,1.7e-5 H 5.332694 c -0.463942,0 -0.845609,0.347957 -0.895503,0.812562 L 3.939541,5.971875 3.441892,0.812579 C 3.408848,0.348638 3.010994,1.7e-5 2.546388,1.7e-5 H 2.463447 C 1.965797,0.049915 1.60099,0.497667 1.650885,0.995317 L 2.414213,8.957705 1.451958,7.149911 C 1.319118,6.884239 1.05344,6.735203 0.771571,6.735203 c -0.115985,0 -0.248821,0.033694 -0.36481,0.099788 -0.381007,0.198927 -0.51384,0.663533 -0.314913,1.045197 l 1.625788,3.068837 c 0.298722,0.563737 0.879313,0.912357 1.509802,0.912357 h 1.44305 c 0.630489,0 1.21108,-0.34862 1.509802,-0.912357 z"
         style="fill:#121111;fill-opacity:1;fill-rule:evenodd;stroke:none"
         id="path16" />
    </g>
  </g>
</svg>
