<?xml version="1.0" encoding="UTF-8" standalone="no"?>
<!-- Created with Inkscape (http://www.inkscape.org/) -->

<svg
   version="1.1"
   id="svg2"
   width="32"
   height="32"
   viewBox="0 0 32 32"
   xmlns="http://www.w3.org/2000/svg"
   xmlns:svg="http://www.w3.org/2000/svg">
  <defs
     id="defs6" />
  <g
     id="g8"
     transform="matrix(1.3333333,0,0,-1.3333333,0,32)">
    <g
       id="g10"
       transform="translate(1.5,5.024902)">
      <path
         d="m 12.45,10.125 c 0,0.1 0.03733,0.208334 0.112,0.325001 0.07533,0.116666 0.162999,0.2 0.263,0.25 0.5,0.2 1.012667,0.349999 1.538,0.449999 0.524667,0.1 1.070333,0.149999 1.637,0.149999 0.333334,0 0.650002,-0.021 0.950001,-0.063 0.299999,-0.04133 0.608331,-0.09533 0.924999,-0.162 0.116667,-0.01667 0.216665,-0.075 0.299999,-0.175 0.08333,-0.1 0.125,-0.216667 0.125,-0.350001 0,-0.233332 -0.071,-0.399999 -0.212999,-0.5 C 17.945667,9.95 17.766666,9.924999 17.549999,9.975 17.299999,10.025 17.046,10.058333 16.788,10.075001 16.529333,10.091667 16.266666,10.1 16,10.1 15.516666,10.1 15.041667,10.054333 14.575001,9.962999 14.108335,9.871 13.666667,9.75 13.25,9.6 13.016666,9.5 12.825,9.5 12.675,9.6 12.525001,9.7 12.45,9.875 12.45,10.125 Z m 0,-5.475 c 0,0.116666 0.03733,0.233333 0.112,0.35 0.07533,0.116667 0.162999,0.2 0.263,0.25 0.483333,0.2 0.996,0.35 1.538,0.450001 C 14.904333,5.800001 15.45,5.85 16,5.85 16.333334,5.85 16.650002,5.829 16.950001,5.787001 17.25,5.745667 17.558332,5.691667 17.875,5.625 c 0.116667,-0.033334 0.216665,-0.1 0.299999,-0.200001 0.08333,-0.1 0.125,-0.216665 0.125,-0.349998 0,-0.216666 -0.071,-0.379002 -0.212999,-0.487002 C 17.945667,4.479333 17.766666,4.45 17.549999,4.5 17.299999,4.55 17.046,4.587666 16.788,4.612999 16.529333,4.637666 16.266666,4.65 16,4.65 15.516666,4.65 15.046,4.604334 14.587999,4.513 14.129333,4.421 13.691667,4.291667 13.275,4.125 13.025,4.025 12.825,4.029334 12.675,4.138 12.525001,4.246 12.45,4.416666 12.45,4.65 Z m 0,2.725 c 0,0.116666 0.03733,0.233333 0.112,0.35 0.07533,0.116667 0.162999,0.2 0.263,0.25 0.5,0.199999 1.012667,0.35 1.538,0.449999 0.524667,0.100001 1.070333,0.150002 1.637,0.150002 0.333334,0 0.650002,-0.020668 0.950001,-0.062001 C 17.25,8.471001 17.558332,8.416666 17.875,8.35 c 0.116667,-0.016667 0.216665,-0.079 0.299999,-0.187 0.08333,-0.108667 0.125,-0.229667 0.125,-0.363 0,-0.216667 -0.071,-0.379 -0.212999,-0.487 C 17.945667,7.204333 17.766666,7.183333 17.549999,7.25 17.299999,7.3 17.046,7.333333 16.788,7.35 16.529333,7.366667 16.266666,7.375 16,7.375 15.516666,7.375 15.046,7.329 14.587999,7.237 14.129333,7.145667 13.691667,7.016666 13.275,6.85 13.025,6.75 12.825,6.754333 12.675,6.862999 12.525001,6.970999 12.45,7.141666 12.45,7.375 Z M 5,2.950001 c 0.833333,0 1.641667,-0.091666 2.425,-0.275 0.783334,-0.183333 1.558334,-0.475 2.325,-0.875 V 11.625 C 9.05,12.075 8.291667,12.416667 7.475,12.65 6.658334,12.883333 5.833333,13 5,13 4.4,13 3.837333,12.95 3.312,12.85 2.787333,12.75 2.25,12.6 1.7,12.4 1.633333,12.366667 1.583333,12.325 1.55,12.275 1.516667,12.225 1.5,12.175 1.5,12.125 V 2.675001 c 0,-0.1 0.033333,-0.170667 0.1,-0.212 0.066667,-0.042 0.133333,-0.046334 0.2,-0.013 0.483333,0.166667 0.987333,0.291667 1.512,0.375 0.525333,0.083333 1.088,0.125 1.688,0.125 z m 6.25,-1.15 c 0.766666,0.4 1.541666,0.691667 2.325,0.875 0.783334,0.183334 1.591667,0.275 2.425,0.275 0.6,0 1.162666,-0.041667 1.688,-0.125 0.524666,-0.083333 1.028667,-0.208333 1.512001,-0.375 0.06667,-0.033334 0.133331,-0.029 0.199999,0.013 0.06667,0.041333 0.1,0.112 0.1,0.212 V 12.125 c 0,0.05 -0.01667,0.1 -0.05,0.15 -0.03333,0.05 -0.08333,0.09167 -0.150002,0.125 C 18.75,12.6 18.212666,12.75 17.688,12.85 17.162666,12.95 16.6,13 16,13 15.166667,13 14.341666,12.883333 13.525,12.65 12.708333,12.416667 11.95,12.075 11.25,11.625 Z M 10.5,0 C 10.3,0 10.116667,0.025001 9.95,0.075001 9.783333,0.125001 9.625,0.191667 9.475,0.275 8.791667,0.658333 8.070667,0.95 7.312,1.15 6.554,1.349999 5.783333,1.450001 5,1.450001 4.383333,1.450001 3.783333,1.383333 3.2,1.25 2.616667,1.116667 2.05,0.916666 1.5,0.65 1.15,0.483333 0.812667,0.508334 0.488,0.725 0.162667,0.941667 0,1.25 0,1.65 V 12.5 c 0,0.216667 0.054333,0.421 0.163,0.613 0.108,0.191333 0.270333,0.328667 0.487,0.412 0.666667,0.333334 1.371,0.579333 2.113,0.738 C 3.504333,14.421 4.25,14.5 5,14.5 c 0.966667,0 1.916667,-0.133333 2.85,-0.4 0.933334,-0.266667 1.816667,-0.658333 2.65,-1.175001 0.833333,0.516668 1.716666,0.908334 2.65,1.175001 0.933333,0.266667 1.883334,0.4 2.85,0.4 0.75,0 1.496,-0.079 2.238001,-0.237 0.741333,-0.158667 1.445333,-0.404666 2.111999,-0.738 0.216668,-0.08333 0.379,-0.220667 0.487,-0.412 C 20.945667,12.921 21,12.716667 21,12.5 V 1.65 C 21,1.25 20.833334,0.945666 20.5,0.737 20.166666,0.528999 19.816668,0.508334 19.450001,0.675001 18.900002,0.925001 18.337667,1.116667 17.763,1.25 17.187668,1.383333 16.6,1.450001 16,1.450001 15.216666,1.450001 14.446,1.349999 13.688,1.15 12.929333,0.95 12.208333,0.658333 11.525,0.275 11.375,0.191667 11.216667,0.125001 11.05,0.075001 10.883333,0.025001 10.7,0 10.5,0 Z"
         style="fill:#121111;fill-opacity:1;fill-rule:nonzero;stroke:none"
         id="path12" />
    </g>
  </g>
</svg>
