<?xml version="1.0" encoding="UTF-8"?>
<svg id="svg2" xmlns="http://www.w3.org/2000/svg" xmlns:svg="http://www.w3.org/2000/svg" version="1.1" viewBox="0 0 32 32">
  <!-- Generator: Adobe Illustrator 29.6.0, SVG Export Plug-In . SVG Version: 2.1.1 Build 207)  -->
  <defs>
    <style>
      .st0 {
        fill: #121111;
      }
    </style>
  </defs>
  <path id="path36" class="st0" d="M12.7,23.4c-.2,0-.3,0-.5,0-.2,0-.3-.1-.4-.3l-5.7-5.7c-.2-.2-.4-.6-.4-1,0-.4.1-.7.4-.9.2-.2.6-.4.9-.4s.7.1.9.4l4.8,4.8,11.3-11.3c.2-.2.6-.4,1-.4s.7.1.9.4c.2.2.4.6.4.9s-.1.7-.4,1l-12.3,12.3c-.1.1-.3.2-.4.3-.2,0-.3,0-.5,0Z"/>
</svg>