<?xml version="1.0" encoding="UTF-8"?>
<svg id="svg2" xmlns="http://www.w3.org/2000/svg" xmlns:svg="http://www.w3.org/2000/svg" version="1.1" viewBox="0 0 32 32">
  <!-- Generator: Adobe Illustrator 29.6.0, SVG Export Plug-In . SVG Version: 2.1.1 Build 207)  -->
  <defs>
    <style>
      .st0 {
        fill: #121111;
      }
    </style>
  </defs>
  <path id="path36" class="st0" d="M16,17.9l-6.5,6.5c-.2.2-.6.4-.9.4s-.7-.1-.9-.4c-.2-.2-.4-.6-.4-.9s.1-.7.4-.9l6.5-6.5-6.5-6.5c-.2-.2-.4-.6-.4-.9s.1-.7.4-.9c.2-.2.6-.4.9-.4s.7.1.9.4l6.5,6.5,6.5-6.5c.2-.2.6-.4.9-.4s.7.1.9.4c.2.2.4.6.4.9s-.1.7-.4.9l-6.5,6.5,6.5,6.5c.2.2.4.6.4.9s-.1.7-.4.9c-.2.2-.6.4-.9.4s-.7-.1-.9-.4l-6.5-6.5Z"/>
</svg>