<svg width="388" height="410" viewBox="0 0 388 410" fill="none" xmlns="http://www.w3.org/2000/svg">
<g clip-path="url(#clip0_1206_4083)">
<path fill-rule="evenodd" clip-rule="evenodd" d="M323.148 12.926C323.148 9.2637 324.385 6.19595 326.858 3.72276C329.34 1.24099 332.412 0.000105778 336.074 0.000105778H374.852C378.514 0.000105778 381.586 1.24099 384.068 3.72276C386.541 6.19595 387.778 9.2637 387.778 12.926V51.7038C387.778 55.3661 386.541 58.4382 384.068 60.92C381.586 63.3932 378.514 64.6297 374.852 64.6297C371.189 64.6297 368.122 63.3932 365.649 60.92C363.167 58.4382 361.926 55.3661 361.926 51.7038V25.852H336.074C332.412 25.852 329.34 24.6154 326.858 22.1422C324.385 19.6604 323.148 16.5884 323.148 12.926ZM3.72267 60.92C6.19583 63.3932 9.26358 64.6297 12.9259 64.6297C16.5883 64.6297 19.6603 63.3932 22.1421 60.92C24.6153 58.4382 25.8519 55.3661 25.8519 51.7038V25.852H51.7037C55.366 25.852 58.4381 24.6111 60.9199 22.1293C63.393 19.6561 64.6296 16.5884 64.6296 12.926C64.6296 9.2637 63.393 6.19164 60.9199 3.70986C58.4381 1.23668 55.366 0.000105778 51.7037 0.000105778H12.9259C9.26358 0.000105778 6.19583 1.23668 3.72267 3.70986C1.24089 6.19164 0 9.2637 0 12.926V51.7038C0 55.3661 1.24089 58.4382 3.72267 60.92ZM3.72267 348.401C6.19583 345.927 9.26358 344.691 12.9259 344.691C16.5883 344.691 19.6603 345.927 22.1421 348.401C24.6153 350.882 25.8519 353.955 25.8519 357.617V383.469H51.7037C55.366 383.469 58.4381 384.71 60.9199 387.191C63.393 389.665 64.6296 392.732 64.6296 396.395C64.6296 400.057 63.393 403.129 60.9199 405.611C58.4381 408.084 55.366 409.321 51.7037 409.321H12.9259C9.26358 409.321 6.19583 408.084 3.72267 405.611C1.24089 403.129 0 400.057 0 396.395V357.617C0 353.955 1.24089 350.882 3.72267 348.401ZM326.858 405.598C324.385 403.125 323.148 400.057 323.148 396.395C323.148 392.732 324.385 389.66 326.858 387.178C329.34 384.705 332.412 383.469 336.074 383.469H361.926V357.617C361.926 353.955 363.167 350.882 365.649 348.401C368.122 345.927 371.189 344.691 374.852 344.691C378.514 344.691 381.586 345.927 384.068 348.401C386.541 350.882 387.778 353.955 387.778 357.617V396.395C387.778 400.057 386.541 403.125 384.068 405.598C381.586 408.08 378.514 409.321 374.852 409.321H336.074C332.412 409.321 329.34 408.08 326.858 405.598Z" fill="#121111"/>
<path fill-rule="evenodd" clip-rule="evenodd" d="M193.056 114.902C211.406 114.902 226.271 100.036 226.271 81.6862C226.271 63.336 211.406 48.4707 193.056 48.4707C174.705 48.4707 159.84 63.336 159.84 81.6862C159.84 100.036 174.705 114.902 193.056 114.902ZM236.162 137.785L252.268 197.286C256.125 204.687 253.548 213.695 245.482 217.552C243.234 218.846 240.658 219.486 238.409 219.486C233.258 219.486 227.793 216.597 225.217 211.446L222.291 176.395L230.726 330.776C231.693 340.425 224.62 349.107 214.971 350.074H213.363C204.368 350.074 196.967 343.328 196 334.32L192.717 234.287V334.32C192.076 343.315 184.362 350.074 175.354 350.074H173.746C164.097 349.107 157.024 340.425 157.991 330.776L163.142 176.395L160.871 211.446C158.295 216.597 153.144 219.486 147.679 219.486C145.43 219.486 142.855 218.833 140.606 217.552C133.218 213.695 130.643 204.687 134.5 197.286L149.636 137.785C155.428 126.855 166.685 120.096 178.91 120.096H206.889C219.113 120.096 230.371 126.855 236.162 137.785Z" fill="#121111"/>
</g>
<defs>
<clipPath id="clip0_1206_4083">
<rect width="387.778" height="409.32" fill="white"/>
</clipPath>
</defs>
</svg>
