<?xml version="1.0" encoding="UTF-8"?>
<svg id="svg2" xmlns="http://www.w3.org/2000/svg" xmlns:svg="http://www.w3.org/2000/svg" version="1.1" viewBox="0 0 32 32">
  <!-- Generator: Adobe Illustrator 29.6.0, SVG Export Plug-In . SVG Version: 2.1.1 Build 207)  -->
  <defs>
    <style>
      .st0 {
        fill: #121111;
      }
    </style>
  </defs>
  <path id="path36" class="st0" d="M16,23.5c.4,0,.7-.1,1-.4.3-.3.4-.6.4-1s-.1-.7-.4-1c-.3-.3-.6-.4-1-.4s-.7.1-1,.4c-.3.3-.4.6-.4,1s.1.7.4,1c.3.3.6.4,1,.4ZM15,18.7h1.9c0-.6,0-1.2.3-1.6.2-.4.6-.9,1.3-1.6.6-.6,1.1-1.1,1.4-1.6.3-.5.5-1.1.5-1.7,0-1.2-.4-2.1-1.2-2.7-.8-.6-1.8-1-2.9-1s-2,.3-2.8.9c-.7.6-1.3,1.3-1.6,2.1l1.7.7c.2-.4.4-.8.8-1.3.4-.4,1-.6,1.7-.6s1.4.2,1.8.6c.4.4.6.9.6,1.4s-.1.9-.4,1.2c-.3.4-.6.7-1,1.1-.9.8-1.4,1.4-1.6,1.9-.2.5-.4,1.2-.4,2.1ZM16,28.7c-1.8,0-3.4-.3-4.9-1-1.5-.7-2.9-1.6-4-2.7-1.1-1.1-2-2.5-2.7-4-.7-1.5-1-3.2-1-4.9s.3-3.4,1-5c.7-1.5,1.6-2.9,2.7-4,1.1-1.1,2.5-2,4-2.7,1.5-.7,3.2-1,4.9-1s3.4.3,5,1c1.5.7,2.9,1.6,4,2.7s2,2.5,2.7,4c.7,1.5,1,3.2,1,5s-.3,3.4-1,4.9c-.7,1.5-1.6,2.9-2.7,4-1.1,1.1-2.5,2-4,2.7-1.5.7-3.2,1-5,1Z"/>
</svg>