<?xml version="1.0" encoding="UTF-8"?>
<svg id="svg2" xmlns="http://www.w3.org/2000/svg" xmlns:svg="http://www.w3.org/2000/svg" version="1.1" viewBox="0 0 32 32">
  <!-- Generator: Adobe Illustrator 29.6.0, SVG Export Plug-In . SVG Version: 2.1.1 Build 207)  -->
  <defs>
    <style>
      .st0 {
        fill: #121111;
      }
    </style>
  </defs>
  <path id="path36" class="st0" d="M15,22.3h2v-7.7h-2v7.7ZM16,12.4c.3,0,.6-.1.8-.3.2-.2.3-.5.3-.8s0-.5-.3-.8c-.2-.2-.5-.3-.8-.3s-.6.1-.8.3c-.2.2-.3.5-.3.8s.1.6.3.8c.2.2.5.3.8.3ZM16,28.7c-1.8,0-3.4-.3-4.9-1-1.5-.7-2.9-1.6-4-2.7-1.1-1.1-2-2.5-2.7-4-.7-1.5-1-3.2-1-4.9s.3-3.4,1-5c.7-1.5,1.6-2.9,2.7-4,1.1-1.1,2.5-2,4-2.7,1.5-.7,3.2-1,4.9-1s3.4.3,5,1c1.5.7,2.9,1.6,4,2.7s2,2.5,2.7,4c.7,1.5,1,3.2,1,5s-.3,3.4-1,4.9c-.7,1.5-1.6,2.9-2.7,4-1.1,1.1-2.5,2-4,2.7-1.5.7-3.2,1-5,1Z"/>
</svg>