<?xml version="1.0" encoding="UTF-8"?>
<svg id="svg2" xmlns="http://www.w3.org/2000/svg" xmlns:xlink="http://www.w3.org/1999/xlink" xmlns:svg="http://www.w3.org/2000/svg" version="1.1" viewBox="0 0 32 32">
  <!-- Generator: Adobe Illustrator 29.6.0, SVG Export Plug-In . SVG Version: 2.1.1 Build 207)  -->
  <defs>
    <style>
      .st0 {
        fill: none;
      }

      .st1 {
        fill: #121111;
      }

      .st2 {
        clip-path: url(#clippath);
      }
    </style>
    <clipPath id="clippath">
      <rect class="st0" width="32" height="32"/>
    </clipPath>
  </defs>
  <g id="g42">
    <g class="st2">
      <g id="g40">
        <g id="g38">
          <path id="path36" class="st1" d="M16,30c-2.6,0-4.9-.6-7-1.8-2.1-1.2-3.8-2.9-5-5.1v3.3c0,.3,0,.5-.3.7-.2.2-.4.3-.7.3s-.5,0-.7-.3c-.2-.2-.3-.4-.3-.7v-5.4c0-.3.1-.6.3-.9.2-.2.5-.3.9-.3h5.4c.3,0,.5,0,.7.3.2.2.3.4.3.7s0,.5-.3.7c-.2.2-.4.3-.7.3h-3c1,1.9,2.5,3.4,4.3,4.6,1.8,1.1,3.9,1.7,6.1,1.7s4.7-.7,6.7-2.1c2-1.4,3.4-3.2,4.3-5.4,0-.2.2-.4.5-.5.2,0,.4-.1.7,0,.3,0,.5.3.7.6.1.3.1.6,0,.9-1.1,2.6-2.7,4.6-5,6.2-2.3,1.6-4.9,2.3-7.8,2.3ZM3,14.6c-.3,0-.5-.2-.6-.4-.2-.2-.2-.5-.1-.8.2-1,.4-1.9.8-2.7.4-.8.8-1.7,1.4-2.5.2-.2.4-.4.7-.5.3,0,.5,0,.8.2.2.2.3.4.4.6,0,.3,0,.5-.2.7-.5.7-.9,1.4-1.2,2.2-.3.8-.6,1.6-.8,2.5,0,.3-.2.5-.4.6-.2.1-.5.2-.8.1ZM7.9,6c-.2-.2-.3-.5-.2-.8s.2-.6.5-.8c.8-.6,1.6-1,2.5-1.4.9-.4,1.8-.6,2.8-.8.3,0,.5,0,.8.1.2.1.4.4.4.6,0,.3,0,.5-.1.8-.1.2-.4.4-.7.4-.8.2-1.6.4-2.4.7-.8.3-1.5.7-2.2,1.2-.2.1-.4.2-.7.2-.3,0-.5-.1-.6-.3ZM14.2,17.8l-2.8-1.3c-.2,0-.4-.3-.4-.5s.1-.4.4-.5l2.8-1.3,1.3-2.8c0-.2.3-.3.5-.3s.4.1.5.3l1.3,2.8,2.8,1.3c.2,0,.3.3.3.5s-.1.4-.3.5l-2.8,1.3-1.3,2.8c0,.2-.3.4-.5.4s-.4-.1-.5-.4l-1.3-2.8ZM24.1,5.9c-.2.2-.4.3-.6.4-.3,0-.5,0-.7-.2-.7-.4-1.4-.8-2.2-1.2-.8-.3-1.6-.6-2.4-.7-.3,0-.5-.2-.7-.5-.2-.2-.2-.5,0-.8,0-.3.2-.5.4-.6.2-.1.5-.2.8-.1,1,.2,1.9.4,2.7.8.9.4,1.7.8,2.5,1.4.3.2.4.4.5.7,0,.3,0,.6-.2.8ZM29,14.6c-.3,0-.5,0-.7-.1-.2-.1-.4-.4-.5-.6-.2-.9-.4-1.7-.7-2.5-.3-.8-.7-1.5-1.2-2.2-.2-.2-.2-.5-.2-.7,0-.3.2-.5.4-.6.2-.2.5-.2.8-.2.3,0,.5.2.7.5.6.8,1,1.6,1.4,2.5.4.9.6,1.8.8,2.8,0,.3,0,.5-.1.8-.2.2-.4.4-.6.4Z"/>
        </g>
      </g>
    </g>
  </g>
</svg>