<?xml version="1.0" encoding="UTF-8"?>
<svg id="svg2" xmlns="http://www.w3.org/2000/svg" xmlns:xlink="http://www.w3.org/1999/xlink" xmlns:svg="http://www.w3.org/2000/svg" version="1.1" viewBox="0 0 32 32">
  <!-- Generator: Adobe Illustrator 29.6.0, SVG Export Plug-In . SVG Version: 2.1.1 Build 207)  -->
  <defs>
    <style>
      .st0 {
        fill: none;
      }

      .st1 {
        fill: #121111;
      }

      .st2 {
        clip-path: url(#clippath);
      }
    </style>
    <clipPath id="clippath">
      <rect class="st0" width="24" height="24"/>
    </clipPath>
    <mask id="mask" x="0" y="0" width="24" height="24" maskUnits="userSpaceOnUse">
      <g id="mask18">
        <g id="g26">
          <g class="st2">
            <g id="g24">
              <g id="g22">
                <path id="path20" d="M0,22c0,1.1.9,2,2,2h20c1.1,0,2-.9,2-2V2c0-1.1-.9-2-2-2H2C.9,0,0,.9,0,2v20Z"/>
              </g>
            </g>
          </g>
        </g>
      </g>
    </mask>
  </defs>
  <path id="path36" class="st1" d="M8,17c-.6,0-1-.4-1-1h0c0-.6.4-1,1-1h16c.6,0,1,.4,1,1h0c0,.6-.4,1-1,1H8Z"/>
</svg>