<?xml version="1.0" encoding="UTF-8" standalone="no"?>
<!-- Created with Inkscape (http://www.inkscape.org/) -->

<svg
   version="1.1"
   id="svg2"
   width="85.333336"
   height="85.333336"
   viewBox="0 0 85.333336 85.333336"
   xmlns="http://www.w3.org/2000/svg"
   xmlns:svg="http://www.w3.org/2000/svg">
  <defs
     id="defs6" />
  <g
     id="g8"
     transform="matrix(1.3333333,0,0,-1.3333333,0,85.333333)">
    <g
       id="g10"
       transform="translate(8,13.121338)">
      <path
         d="m 3.738324,1.1e-5 c -1.016421,0 -1.893591,0.368962 -2.63151,1.106881 C 0.368938,1.84481 0,2.721977 0,3.7384 v 31.401874 c 0,1.016422 0.368938,1.893589 1.106814,2.631508 0.737919,0.737919 1.615089,1.10688 2.63151,1.10688 h 31.401874 c 1.016418,0 1.893589,-0.368961 2.631508,-1.10688 0.737918,-0.737919 1.10688,-1.615086 1.10688,-2.631508 V 21.632423 l 7.461616,7.461682 c 0.328957,0.328956 0.687828,0.407039 1.076619,0.234245 C 47.805607,29.155556 48,28.853165 48,28.421179 V 10.457499 C 48,10.025513 47.805607,9.723124 47.416821,9.550329 47.02803,9.377535 46.669159,9.455612 46.340202,9.784571 l -7.461616,7.486562 V 3.7384 c 0,-1.016423 -0.368962,-1.89359 -1.10688,-2.631508 C 37.033787,0.368973 36.156616,1.1e-5 35.140198,1.1e-5 Z m 0,2.940793 h 31.401874 c 0.232624,0 0.423713,0.074779 0.573265,0.22433 0.149555,0.149556 0.224331,0.340641 0.224331,0.573266 v 31.401874 c 0,0.232624 -0.07478,0.423714 -0.224331,0.573269 -0.149552,0.149551 -0.340641,0.224327 -0.573265,0.224327 H 3.738324 C 3.5057,35.93787 3.31461,35.863094 3.165056,35.713543 3.015503,35.563988 2.940727,35.372898 2.940727,35.140274 V 3.7384 c 0,-0.232625 0.074776,-0.42371 0.224329,-0.573266 C 3.31461,3.015583 3.5057,2.940804 3.738324,2.940804 Z"
         style="fill:#121111;fill-opacity:1;fill-rule:nonzero;stroke:none"
         id="path12" />
    </g>
    <g
       id="g14"
       transform="rotate(90,11.701248,31.642807)">
      <path
         d="m 15.222661,7.54945 c -0.247523,0.247522 -0.371284,0.543449 -0.371284,0.887781 0,0.343233 0.123761,0.638611 0.371284,0.886134 l 5.445506,5.404251 H 1.237615 c -0.357533,0 -0.652911,0.117161 -0.886133,0.351483 C 0.117161,15.312321 0,15.607697 0,15.965231 c 0,0.357532 0.117161,0.653459 0.351482,0.887781 0.233222,0.233223 0.5286,0.349833 0.886133,0.349833 h 19.430552 l -5.486759,5.445505 c -0.22002,0.247524 -0.330031,0.536299 -0.330031,0.866329 0,0.330032 0.123761,0.618809 0.371284,0.866331 0.247522,0.275026 0.536301,0.412539 0.866332,0.412539 0.330031,0 0.632559,-0.137513 0.907583,-0.412539 l 7.384436,-7.384434 c 0.137512,-0.137512 0.240923,-0.295377 0.310228,-0.473592 0.06821,-0.179318 0.10231,-0.365235 0.10231,-0.557753 0,-0.192518 -0.0341,-0.377885 -0.10231,-0.556102 -0.0693,-0.179316 -0.172716,-0.337731 -0.310228,-0.475244 L 16.955322,7.508196 C 16.707798,7.260674 16.419024,7.136911 16.088993,7.136911 c -0.330031,0 -0.61881,0.137513 -0.866332,0.412539 z"
         style="fill:#121111;fill-opacity:1;fill-rule:nonzero;stroke:none"
         id="path16" />
    </g>
  </g>
</svg>
