<?xml version="1.0" encoding="UTF-8" standalone="no"?>
<!-- Created with Inkscape (http://www.inkscape.org/) -->

<svg
   version="1.1"
   id="svg2"
   width="32"
   height="32"
   viewBox="0 0 32 32"
   xmlns="http://www.w3.org/2000/svg"
   xmlns:svg="http://www.w3.org/2000/svg">
  <defs
     id="defs6" />
  <g
     id="g8"
     transform="matrix(1.3333333,0,0,-1.3333333,0,32)">
    <g
       id="g10"
       transform="translate(6.5,1.800049)">
      <path
         d="M 2.5,0 C 2.283333,0 2.104334,0.075001 1.963,0.225 1.821,0.375 1.75,0.549999 1.75,0.75 1.75,0.966667 1.821,1.145668 1.963,1.287001 2.104334,1.429001 2.283333,1.5 2.5,1.5 h 6 C 8.716666,1.5 8.896,1.429001 9.038,1.287001 9.179334,1.145668 9.25,0.966667 9.25,0.75 9.25,0.549999 9.179334,0.375 9.038,0.225 8.896,0.075001 8.716666,0 8.5,0 Z M 1.8,3.5 C 1.3,3.5 0.875,3.675001 0.525,4.025002 0.175,4.375002 0,4.808333 0,5.325 V 18.700001 C 0,19.200001 0.175,19.625 0.525,19.975 0.875,20.325001 1.3,20.5 1.8,20.5 h 7.4 c 0.5,0 0.925,-0.174999 1.275,-0.525 C 10.825001,19.625 11,19.200001 11,18.700001 V 5.325 C 11,4.808333 10.825001,4.375002 10.475,4.025002 10.125,3.675001 9.7,3.5 9.2,3.5 Z M 1.5,6.25 V 5.325 C 1.5,5.224999 1.529334,5.146 1.588,5.088 1.646,5.029334 1.716667,4.999999 1.8,4.999999 h 7.4 c 0.083333,0 0.154334,0.029335 0.213,0.088001 C 9.471,5.146 9.5,5.224999 9.5,5.325 V 6.25 Z m 0,1.5 h 8 v 8.5 h -8 z m 0,10 h 8 v 0.950001 C 9.5,18.783333 9.471,18.854334 9.413,18.913 9.354334,18.971001 9.283333,19 9.2,19 H 1.8 C 1.716667,19 1.646,18.971001 1.588,18.913 1.529334,18.854334 1.5,18.783333 1.5,18.700001 Z m 0,0 V 19 18.700001 Z"
         style="fill:#121111;fill-opacity:1;fill-rule:nonzero;stroke:none"
         id="path12" />
    </g>
  </g>
</svg>
