<?xml version="1.0" encoding="UTF-8"?>
<svg id="svg2" xmlns="http://www.w3.org/2000/svg" xmlns:xlink="http://www.w3.org/1999/xlink" xmlns:svg="http://www.w3.org/2000/svg" version="1.1" viewBox="0 0 291.2 585.3">
  <!-- Generator: Adobe Illustrator 29.6.0, SVG Export Plug-In . SVG Version: 2.1.1 Build 207)  -->
  <defs>
    <style>
      .st0 {
        fill: none;
      }

      .st1 {
        fill: #414042;
      }

      .st2 {
        fill: #00a14b;
      }

      .st3 {
        clip-path: url(#clippath-1);
      }

      .st4 {
        fill: #fff;
      }

      .st5 {
        fill: #808285;
      }

      .st6 {
        fill: #939598;
      }

      .st7 {
        fill: #009444;
      }

      .st8 {
        clip-path: url(#clippath);
      }

      .st9 {
        fill: #006838;
      }

      .st10 {
        fill: #a7a9ac;
      }
    </style>
    <clipPath id="clippath">
      <rect class="st0" y="0" width="291.2" height="585.3"/>
    </clipPath>
    <clipPath id="clippath-1">
      <rect class="st0" y="0" width="291.2" height="585.3"/>
    </clipPath>
  </defs>
  <g id="g576">
    <g class="st8">
      <g id="g574">
        <g id="g72">
          <path id="path70" class="st4" d="M22.3,494.1c0-.3-.2-.7-.3-1.1,0-.3-.1-.7-.2-1,.1.7.3,1.4.4,2.1Z"/>
        </g>
        <g id="g76">
          <path id="path74" class="st4" d="M39.7,502.1l-.8-.4h.6s.1.3.2.4Z"/>
        </g>
        <g id="g80">
          <path id="path78" class="st4" d="M21.4,488.2v.2s0-.2,0-.2v-.2s0,.2,0,.3Z"/>
        </g>
        <g id="g84">
          <path id="path82" class="st4" d="M21.6,490.1c0-.3-.1-.6-.1-.9,0,.2,0,.4,0,.6s0,.3,0,.4Z"/>
        </g>
        <g id="g88">
          <path id="path86" class="st4" d="M21.3,486.7s0-.4,0-.6v-.9c0,.5,0,.9,0,1.4Z"/>
        </g>
        <g id="g92">
          <path id="path90" class="st4" d="M22.3,476.3s0,.5-.1.7c0,.5-.2.9-.3,1.4,0-.7.3-1.4.4-2.1Z"/>
        </g>
        <g id="g96">
          <path id="path94" class="st4" d="M22.9,474.2c-.1.4-.3.9-.4,1.4,0-.3.2-.7.3-1v-.3Z"/>
        </g>
        <g id="g100">
          <path id="path98" class="st4" d="M22.3,494.1c0-.3-.2-.7-.3-1.1,0-.3-.1-.7-.2-1,.1.7.3,1.4.4,2.1Z"/>
        </g>
        <g id="g104">
          <path id="path102" class="st4" d="M27.2,505.7c-.2-.2-.3-.5-.5-.7-.2-.3-.4-.7-.6-1,.3.6.7,1.2,1.1,1.7Z"/>
        </g>
        <g id="g108">
          <path id="path106" class="st4" d="M29.7,509c-.4-.3-.7-.7-1-1.1h0c-.2-.3-.4-.6-.6-.9.5.7,1.1,1.3,1.7,2Z"/>
        </g>
        <g id="g112">
          <path id="path110" class="st4" d="M275.1,225.4l-96.5,329.2h0l96.5-329.2Z"/>
        </g>
        <g id="g116">
          <path id="path114" class="st4" d="M276.2,220.2c0,.3,0,.5-.1.7,0,.2,0,.4,0,.6,0,.4-.1.9-.3,1.3.2-.8.3-1.6.4-2.4,0,0,0-.1,0-.2h0Z"/>
        </g>
        <g id="g120">
          <path id="path118" class="st4" d="M163,563.1s-.1.2-.2.2c0,0,.2-.1.2-.2Z"/>
        </g>
        <g id="g124">
          <path id="path122" class="st4" d="M163.7,562.5s-.2.1-.2.2c-.2.1-.3.3-.5.3.2-.1.4-.3.6-.5,0,0,0,0,0,0h0Z"/>
        </g>
        <g id="g128">
          <path id="path126" class="st4" d="M176,562.9c0,.3-.2.6-.3,1h0c.1-.3.3-.6.4-1Z"/>
        </g>
        <g id="g132">
          <path id="path130" d="M141.8,134.1c-.4,0-.9,0-1.3,0,.2,0,.5,0,.7,0h.2s.2,0,.3,0h0Z"/>
        </g>
        <g id="g136">
          <path id="path134" class="st4" d="M133,138.5c-.3.3-.5.6-.6.9h0c.3-.3.5-.6.7-.9Z"/>
        </g>
        <g id="g140">
          <path id="path138" class="st4" d="M147.8,122.5c-2.2-.9-4.3-1.3-6.4-1.3h1.2c.4,0,.9,0,1.3.1.4,0,.9.1,1.3.3.3,0,.6.2.9.3.3,0,.5.2.8.3.3.1.6.3.9.4Z"/>
        </g>
        <g id="g144">
          <path id="path142" class="st4" d="M148.1,122.6s-.3,0-.3-.1c.1,0,.2,0,.3.1Z"/>
        </g>
        <g id="g148">
          <path id="path146" class="st4" d="M164.4,576.7c-.5.3-.9.5-1.4.6-.5.2-1,.4-1.5.5-.5.2-1,.3-1.5.4-.3,0-.6.1-.9.2h-1.4s.3,0,.5,0c.3,0,.6,0,.9-.1.2,0,.4,0,.6-.1.6,0,1.1-.2,1.6-.4.4,0,.7-.2,1.1-.4,0,0,.3,0,.5-.2h0s0,0,0,0,0,0,.1,0c.1,0,.2,0,.3-.1.2,0,.3-.1.6-.3h0c0,0,0,0,.1,0h0Z"/>
        </g>
        <g id="g152">
          <path id="path150" d="M161.8,563.9c-.3.2-.6.3-.8.5-.3.1-.6.3-.9.4-.6.3-1.2.4-1.8.6h-.6c0,.1-.2.1-.2.1-.3,0-.5,0-.7,0-1.7,0-3.5-.3-5.2-1.3l10.2-.3Z"/>
        </g>
        <g id="g156">
          <path id="path154" d="M147.8,122.5c-2.2-.9-4.3-1.3-6.4-1.3h1.2c.4,0,.9,0,1.3.1.4,0,.9.1,1.3.3.3,0,.6.2.9.3.3,0,.5.2.8.3.3.1.6.3.9.4Z"/>
        </g>
        <g id="g160">
          <path id="path158" d="M148.6,122.9s-.3-.2-.5-.2c-.1,0-.3-.1-.3-.2.1,0,.2,0,.3.1.1,0,.3.1.5.3Z"/>
        </g>
        <g id="g164">
          <path id="path162" d="M173.6,567.8c-.3.6-.6,1.1-1,1.6-2.3,3.3-5.1,5.7-8.1,7.3-.5.3-.9.5-1.4.6-.5.2-1,.4-1.5.5-.5.2-1,.3-1.5.4-.3,0-.6.1-.9.2h-1.4s.3,0,.5,0c.3,0,.6,0,.9-.1.2,0,.4,0,.6-.1.6,0,1.1-.2,1.6-.4.4,0,.7-.2,1.1-.4,0,0,.3,0,.5-.2h0s0,0,0,0,0,0,.1,0c.1,0,.2,0,.3-.1.2,0,.3-.1.6-.3h0c.2,0,.4-.2.6-.3.1,0,.2-.1.3-.2.9-.5,1.7-1.1,2.6-1.7,0,0,0,0,.1-.1,0,0,0,0,0,0,0,0,.1-.1.2-.2,0,0,.1,0,.2-.2,0,0,0,0,0,0,0,0,.3-.3.4-.4.4-.3.7-.7,1.1-1.1.2-.2.4-.5.6-.7.3-.3.5-.5.7-.8,0,0,.1,0,.1-.1.7-.9,1.3-1.8,2-2.8,0,0,0,0,0,0Z"/>
        </g>
        <g id="g168">
          <path id="path166" d="M175.1,565c-.1.3-.3.7-.5,1,0,0,0,0,0,.1-.3.5-.5.9-.8,1.4.5-.8.9-1.6,1.3-2.5Z"/>
        </g>
        <g id="g172">
          <path id="path170" d="M175.6,563.9h0s0,0,0,0h0Z"/>
        </g>
        <g id="g176">
          <path id="path174" d="M176,562.9c0,.3-.2.6-.3,1h0c.1-.3.3-.6.4-1Z"/>
        </g>
        <g id="g180">
          <path id="path178" class="st4" d="M273.4,197.5h-.6s-.1-.3-.3-.5h.2c0,0,.6.5.6.5Z"/>
        </g>
        <g id="g184">
          <path id="path182" class="st4" d="M276.2,220.2h0c1.2-8-.1-16.1-3.4-22.6h.1c3.2,6.5,4.5,14.7,3.3,22.6Z"/>
        </g>
        <g id="g188">
          <path id="path186" d="M141.4,134.1h-.2c-.3,0-.5,0-.7,0,.4,0,.9,0,1.3,0-.1,0-.3,0-.3,0h0ZM170.8,571.5c.2-.2.4-.4.6-.6,0,0,0-.1,0-.2-.2.3-.4.6-.7.8h0ZM168.6,573.7s.2-.1.3-.2c0,0,0,0,.1-.2-.1.1-.3.3-.4.4h0ZM163.3,577s0,0-.1,0c0,0,.1,0,.2,0,0,0,.2,0,.3-.1-.1,0-.2,0-.3.1h0ZM162.8,563.2s.1,0,.2-.2c0,0-.1.1-.2.2ZM157.8,578.4h.3s.1,0,.2,0c-.2,0-.3,0-.5,0ZM157.4,565.5h.9c-.3,0-.6,0-.9,0h0ZM21.9,492c0,.3.1.7.2,1,0,.3.2.7.3,1.1-.2-.7-.3-1.4-.4-2.1ZM275.8,222.7c.1-.4.2-.9.3-1.3,0-.2,0-.3,0-.6,0-.2,0-.3,0-.5,0,.8-.2,1.6-.4,2.4h0Z"/>
        </g>
        <g id="g192">
          <path id="path190" class="st5" d="M21.4,487.9v.2h0s0-.1,0-.2ZM21.3,485.3v.9s0,.4,0,.6c0-.5,0-.9,0-1.4Z"/>
        </g>
        <g id="g196">
          <path id="path194" class="st5" d="M23.5,498.2s0-.2-.1-.3c0,.2.1.3.2.5,0,0,0-.1,0-.2ZM26.1,504c.2.3.4.7.6,1,.1.2.3.5.5.7-.4-.6-.7-1.1-1.1-1.7ZM28,507c.2.3.4.5.6.8h0c.3.5.6.9,1,1.2-.6-.6-1.2-1.3-1.7-2Z"/>
        </g>
        <g id="g200">
          <path id="path198" class="st5" d="M272.8,197.5s-.1-.3-.3-.5c-.4-.9-.9-1.7-1.4-2.5-.3-.4-.5-.7-.7-1.1,0,0,0-.2-.2-.3,0-.1-.1-.2-.2-.3,0-.2-.3-.3-.4-.5,0,0,0-.1-.1-.2,0,0-.1-.2-.3-.3-.2-.3-.4-.5-.6-.7,0,0,0,0,0,0-.3-.4-.6-.7-.9-1-.3-.4-.6-.6-.9-.9-.3-.3-.7-.6-1.1-.9-.5-.4-1-.8-1.5-1.1,0-.1-.2-.2-.3-.2l-1-.6c0,0-.2,0-.3-.1l-112.6-62.6s-.2,0-.3-.1c-.3-.2-.7-.4-1-.5-.1,0-.3-.2-.5-.2-.1,0-.3-.1-.3-.2-2.2-.9-4.3-1.3-6.4-1.3h-.6c-.2,0-.4,0-.6,0-1.2,0-2.5.3-3.6.6-.5.1-.9.3-1.4.5-.6.2-1.1.4-1.7.7-.4.2-.8.4-1.1.6-.6.3-1.2.7-1.8,1.2-.4.3-.9.7-1.3,1.1-1.8,1.6-3.4,3.6-4.8,5.9-.3.5-.6,1.1-.9,1.6-.3.6-.6,1.3-1,2-.3.6-.6,1.4-.8,2.1-.3.7-.5,1.4-.7,2.1L22.9,474.2c-.1.4-.3.9-.4,1.4,0,.2,0,.5-.2.7,0,.2,0,.5-.1.7,0,.5-.2.9-.3,1.4,0,.2,0,.3,0,.5,0,0,0,.2,0,.3v.2c-.2,1-.3,2.1-.4,3.1,0,.9,0,1.8,0,2.8s0,.9,0,1.4,0,.8,0,1.2c0,0,0,.2,0,.3v1c0,.2,0,.4,0,.6s0,.3,0,.4c0,.5.1,1,.2,1.6,0,0,0,.2,0,.3.1.7.3,1.4.4,2.1.2.9.4,1.8.7,2.7.1.4.2.7.3,1.1,0,0,0,.2.1.3,0,0,0,.1,0,.2,0,.2.2.4.2.6,0,.1.1.3.2.4.2.5.4,1,.6,1.6,0,0,0,0,0,0,.3.9.8,1.7,1.2,2.5,0,.2.2.3.3.5.3.6.7,1.2,1.1,1.7.2.3.3.5.5.8.1.2.2.3.3.5.5.7,1.1,1.3,1.7,2,.8.9,1.6,1.8,2.6,2.5.5.4,1,.8,1.5,1.1.5.3,1,.7,1.6,1l112.7,62.5c2.9,1.6,6,2.4,8.9,2.3.3,0,.5,0,.7,0s.3,0,.5,0c.3,0,.6,0,.9-.1.2,0,.4,0,.6-.1.6,0,1.1-.2,1.6-.4.4,0,.7-.2,1.1-.4,0,0,.3,0,.5-.2h0s0,0,0,0,0,0,.1,0c.1,0,.2,0,.3-.1.2,0,.3-.1.6-.3h0c.2,0,.4-.2.6-.3.1,0,.2-.1.3-.2.9-.5,1.7-1.1,2.6-1.7,0,0,0,0,.1-.1,0,0,0,0,0,0,0,0,.1-.1.2-.2,0,0,.1,0,.2-.2,0,0,0,0,0,0,0,0,.3-.3.4-.4.4-.3.7-.7,1.1-1.1.2-.2.4-.5.6-.7.3-.3.5-.5.7-.8,0,0,.1,0,.1-.1.7-.9,1.3-1.8,2-2.8h0c0,0,0-.2,0-.3.5-.8.9-1.6,1.3-2.5.2-.3.3-.6.5-.9h0c0,0,0,0,0,0,.1-.3.3-.7.4-1,.1-.2.2-.4.3-.6h0c0-.1,0-.3,0-.4.2-.6.4-1.1.6-1.7,0-.1,0-.3.1-.4l1.5-5.2,96.7-329.2v-.3c.3-.8.5-1.6.7-2.4.2-.8.3-1.6.4-2.4,0,0,0-.1,0-.2,1.2-8-.1-16.1-3.4-22.6h0ZM266.2,220.4l-98.1,334.5c-.2.6-.4,1.2-.6,1.9h0c-.1.3-.2.6-.3.8,0,0,0,0,0,0-.3.6-.6,1.1-.9,1.6,0,0,0,0,0,0-.3.6-.7,1.1-1.1,1.6,0,.1-.2.2-.3.3h0c-.2.3-.3.5-.5.7-.2.2-.3.4-.6.6,0,0-.2.1-.2.2-.2.1-.3.3-.5.3,0,0-.1.2-.2.2-.3.2-.6.4-.9.6h0c-.3.2-.6.3-.8.5-.3.1-.6.3-.9.4-.6.3-1.2.4-1.8.6h-.6c0,.1-.2.1-.2.1-.3,0-.5,0-.7,0-1.7,0-3.5-.3-5.2-1.3l-111.9-62.1-.8-.4c-6.5-3.6-9.8-13.7-7.2-22.5l1.5-5.3,96.5-329.2c.2-.6.4-1.2.6-1.9.1-.3.3-.6.4-.9.3-.6.6-1.1.9-1.6,0,0,0,0,0,0,.2-.3.3-.6.5-.8.3-.3.5-.6.7-.9,0,0,0,0,0-.1.4-.5.9-1,1.3-1.4.5-.5,1.1-.9,1.6-1.2.3-.2.5-.3.8-.5,0,0,0,0,0,0h0c.3-.2.6-.3.9-.4.6-.2,1.1-.4,1.6-.5.1,0,.3,0,.4,0,.2,0,.5,0,.7,0,.2,0,.5,0,.7,0h.2s.2,0,.3,0h.3c.2,0,.4,0,.6,0,.4,0,.8.1,1.2.2.8.2,1.7.5,2.5,1l2.4,1.3,18.4,10.2c1.7.9,3.2,3.6,3.5,5.9l2,16.3c.3,2.4,1.8,5,3.4,5.9l41.5,23.1s.4.2.6.2c.1,0,.2,0,.3,0,0,0,.1,0,.2,0h.7s.1,0,.2,0h.6s.2,0,.3,0h.1c.3,0,.6-.2.9-.3.1,0,.2-.1.3-.2.5-.2.9-.5,1.2-.9l2.8-2.8,6.9-6.9s.5-.4.7-.6c.2-.1.4-.3.6-.3,0,0,.2,0,.3,0,.3-.1.6-.2.8-.3.2,0,.4,0,.6,0,.2,0,.3,0,.4,0s.2,0,.3,0c.3,0,.6,0,.8,0,.3,0,.6.2.9.3l1.4.8,4.7,2.6,14.6,8.1c6.6,3.6,9.8,13.7,7.2,22.4h0s0,0,0,0Z"/>
        </g>
        <g id="g204">
          <path id="path202" class="st10" d="M46.2,478.8c-2.6,8.7.6,18.9,7.2,22.5l-13.9.4h-.6c-6.5-3.6-9.8-13.7-7.2-22.5l1.5-5.3,96.5-329.2c.2-.6.4-1.2.6-1.9.1-.3.3-.6.4-.9.3-.6.6-1.1.9-1.6,0,0,0,0,0,0,.2-.3.3-.5.6-.8.2-.3.4-.6.6-.9,0,0,0,0,0-.1.4-.5.9-1,1.3-1.4.5-.5,1.1-.9,1.6-1.2.3-.2.5-.3.8-.5,0,0,0,0,0,0h0c.3-.2.6-.3.9-.4.6-.2,1.1-.4,1.6-.5.1,0,.3,0,.4,0,.2,0,.5,0,.7,0,.4,0,.9,0,1.3,0h.3c.2,0,.4,0,.6,0,.4,0,.8.1,1.2.2.8.2,1.7.5,2.5,1l2.4,1.3c-1.9,1.8-3.5,4.4-4.4,7.6L46.2,478.8Z"/>
        </g>
        <g id="g208">
          <path id="path206" class="st4" d="M39.7,502.1l-.8-.4h.6s.1.3.2.4Z"/>
        </g>
        <g id="g212">
          <path id="path210" class="st4" d="M133,138.5c-.3.3-.5.6-.6.9-.2.3-.4.5-.6.8.2-.3.3-.6.5-.8.3-.3.5-.6.7-.9Z"/>
        </g>
        <g id="g216">
          <path id="path214" class="st4" d="M161.8,563.9c-.3.2-.6.3-.8.5-.3.1-.6.3-.9.4-.6.3-1.2.4-1.8.6-.3,0-.6,0-.9.1-.3,0-.5,0-.7,0-1.7,0-3.5-.3-5.2-1.3l10.2-.3Z"/>
        </g>
        <g id="g220">
          <path id="path218" class="st4" d="M163.7,562.5s-.2.1-.2.2c-.2.1-.3.3-.5.3.2-.1.4-.3.6-.5,0,0,0,0,0,0h0Z"/>
        </g>
        <g id="g224">
          <path id="path222" class="st10" d="M266.2,220.4l-98.1,334.5c-.2.6-.4,1.2-.6,1.9h0c-.1.3-.2.6-.3.8,0,0,0,0,0,0-.3.6-.6,1.1-.9,1.6,0,0,0,0,0,0-.3.6-.7,1.1-1.1,1.6,0,.1-.2.2-.3.3h0c-.2.3-.3.5-.5.7-.2.2-.3.4-.6.6,0,0,0,0,0,0-.2.2-.3.3-.6.5,0,0-.1.1-.2.2-.3.3-.6.5-.9.7h0l-10.2.3-111.9-62.1s-.2-.3-.2-.4l13.9-.4c-6.5-3.6-9.8-13.7-7.2-22.5l98-334.5c.9-3.2,2.5-5.8,4.4-7.6l18.4,10.2c1.7.9,3.2,3.6,3.5,5.9l2,16.3c.3,2.4,1.8,5,3.4,5.9l41.5,23.1s.4.2.6.2c.1,0,.2,0,.3,0,0,0,.1,0,.2,0h.6s.2,0,.3,0c.2,0,.4,0,.6,0,0,0,.2,0,.3,0h.1c.3,0,.6-.2.9-.3.1,0,.2-.1.3-.2.5-.2.9-.5,1.2-.9l2.8-2.8,6.9-6.9s.5-.4.7-.6c.2-.1.4-.3.6-.3,0,0,.2,0,.3,0,.3-.1.6-.2.8-.3.2,0,.4,0,.6,0,.2,0,.3,0,.4,0s.2,0,.3,0c.3,0,.6,0,.8,0,.3,0,.6.2.9.3l1.4.8,4.7,2.6,14.6,8.1c6.6,3.6,9.8,13.7,7.2,22.4h0Z"/>
        </g>
        <g id="g228">
          <path id="path226" d="M39.7,502.1l-.8-.4h.6s.1.3.2.4Z"/>
        </g>
        <g id="g232">
          <path id="path230" d="M163,563.1s-.1.2-.2.2c0,0,.2-.1.2-.2Z"/>
        </g>
        <g id="g236">
          <path id="path234" d="M163.5,562.6s0,0,0,.1c-.2.1-.3.3-.5.3.2-.1.4-.3.6-.5Z"/>
        </g>
        <g id="g240">
          <path id="path238" class="st4" d="M160.6,121.5c-1.8-.6-3.6-.8-5.3-.7l-12.7.3h0c-.4,0-.9,0-1.3,0l14-.4c1.8,0,3.6.2,5.5.9Z"/>
        </g>
        <g id="g244">
          <path id="path242" class="st4" d="M147.8,122.5c-2.2-.9-4.3-1.3-6.4-1.3h-.6c-.2,0-.4,0-.6,0-1.2,0-2.5.3-3.6.6-.5.1-.9.3-1.4.5-.6.2-1.1.4-1.7.7-.4.2-.8.4-1.1.6-.6.3-1.2.7-1.8,1.2-.4.3-.9.7-1.3,1.1-1.8,1.6-3.4,3.6-4.8,5.9-.3.5-.6,1.1-.9,1.6-.3.6-.6,1.3-1,2,3.9-9.2,11.1-14.6,18.7-14.6h0c.4,0,.9,0,1.3,0h0c.4,0,.9,0,1.3.2.4,0,.9.1,1.3.3.3,0,.6.2.9.3.3,0,.5.2.8.3.3.1.6.3.9.4h0s0,0,0,0Z"/>
        </g>
        <g id="g248">
          <path id="path246" class="st4" d="M148.1,122.6s-.3,0-.3-.1c.1,0,.2,0,.3.1Z"/>
        </g>
        <g id="g252">
          <path id="path250" class="st4" d="M175.6,563.9h0s0,0,0,0h0Z"/>
        </g>
        <g id="g256">
          <path id="path254" class="st4" d="M176,562.9c0,.3-.2.6-.3,1h0c.1-.3.3-.6.4-1Z"/>
        </g>
        <g id="g260">
          <path id="path258" class="st6" d="M290.2,222.3c-.2.8-.4,1.6-.6,2.4,0,.1,0,.2,0,.3l-98.1,334.4s0,.2,0,.3c-.2.6-.3,1.2-.6,1.8-.3.6-.5,1.3-.8,2-3.9,9-11,14.4-18.5,14.6h-.5l-11.9.3c.3,0,.6,0,.9-.2.5,0,1-.2,1.5-.4.5-.1,1-.3,1.5-.5.5-.2.9-.4,1.4-.6,3.1-1.6,5.9-4.1,8.1-7.3.3-.5.7-1,1-1.6h0c0,0,0-.2,0-.3.3-.4.6-.9.8-1.4,0,0,0,0,0-.1.2-.3.3-.7.5-1,.2-.3.3-.6.5-.9h0c0,0,0-.1,0-.1.1-.3.3-.6.3-1,.1-.2.2-.4.3-.6h0c0-.1,0-.3,0-.4.2-.6.4-1.1.6-1.7,0-.1,0-.3.1-.4l1.5-5.2h0l96.5-329.2v-.3c.3-.8.5-1.6.7-2.4.1-.4.2-.9.3-1.3,0-.2,0-.3,0-.6,0-.2,0-.4.1-.7,1.2-7.9,0-16.1-3.3-22.6h.5l-.6-.4c-.4-.9-.9-1.7-1.4-2.5,0,0,0,0,0-.1-.3-.4-.5-.8-.9-1.1,0,0,0-.2-.2-.3,0-.1-.1-.2-.2-.3,0-.2-.3-.3-.4-.5,0,0,0-.1-.1-.2,0,0-.1-.2-.3-.3-.2-.3-.4-.5-.6-.7h0c-.3-.5-.6-.8-1-1.1-.3-.4-.6-.6-.9-.9-.3-.3-.7-.6-1.1-.9-.5-.5-1-.8-1.5-1.1,0-.1-.2-.2-.3-.2-.3-.2-.7-.4-1-.6,0,0-.2,0-.3-.1l-112.6-62.6s-.2,0-.3-.1c-.3-.2-.7-.4-1-.5-.2-.1-.3-.2-.5-.3-.1,0-.2-.1-.3-.1-.3-.1-.6-.3-.9-.4-.3,0-.5-.2-.8-.3-.3,0-.6-.2-.9-.3-.4-.1-.9-.2-1.3-.3-.4-.1-.9-.2-1.3-.2l12.7-.3c1.8,0,3.5.2,5.3.7.5.1,1.1.3,1.6.6.6.2,1.2.5,1.8.9,0,0,.2,0,.3.1l112.6,62.5s.1,0,.2.1h0c.5.3.9.5,1.3.9.6.3,1,.7,1.5,1.1.4.3.9.7,1.2,1.1.4.4.8.8,1.2,1.2.7.7,1.3,1.5,1.9,2.3.5.7,1,1.5,1.5,2.2.8,1.4,1.6,2.8,2.2,4.4.3.6.5,1.1.7,1.7,2.3,6.6,2.9,14.3,1.4,21.6h0Z"/>
        </g>
        <g id="g264">
          <path id="path262" class="st4" d="M190,563.5c-3.8,9-10.8,14.5-18.4,14.7l-14.4.4c.3,0,.6,0,.9,0,.3,0,.6,0,.9,0h0l11.9-.3h.5c7.5-.2,14.6-5.6,18.5-14.6Z"/>
        </g>
        <g id="g268">
          <path id="path266" class="st4" d="M191.4,559.7c-.2.6-.4,1.2-.6,1.8.2-.6.4-1.2.6-1.8h0Z"/>
        </g>
        <g id="g272">
          <path id="path270" class="st4" d="M173.6,567.8c-.3.6-.6,1.1-1,1.6-2.3,3.3-5.1,5.7-8.1,7.3-.5.3-.9.5-1.4.6-.5.2-1,.4-1.5.5-.5.2-1,.3-1.5.4-.3,0-.6.1-.9.2h0c-.3,0-.6,0-.9,0-3.3.3-6.6-.4-9.9-2.2l-.2-.2c2.9,1.6,6,2.4,8.9,2.3.3,0,.5,0,.7,0s.3,0,.5,0c.3,0,.6,0,.9-.1.2,0,.4,0,.6-.1.6,0,1.1-.2,1.6-.4.4,0,.7-.2,1.1-.4,0,0,.3,0,.5-.2h0s0,0,0,0,0,0,.1,0h0s.2,0,.3-.1c.2,0,.3-.1.6-.3h0c.2,0,.4-.2.6-.3.1,0,.2-.1.3-.2.9-.5,1.7-1.1,2.6-1.7,0,0,0,0,.1-.1,0,0,0,0,0,0,.2,0,.3-.3.5-.4,0,0,.2-.1.3-.2,0,0,0-.1.2-.2.4-.3.7-.7,1.1-1.1.2-.2.4-.5.6-.7.2-.2.4-.4.6-.6,0-.1.1-.2.2-.3.7-.9,1.3-1.8,2-2.8h0Z"/>
        </g>
        <g id="g276">
          <path id="path274" class="st4" d="M175.1,565c-.1.3-.3.7-.5,1,0,0,0,0,0,.1-.3.5-.5.9-.8,1.4.5-.8.9-1.6,1.3-2.5Z"/>
        </g>
        <g id="g280">
          <path id="path278" class="st4" d="M175.6,563.9h0s0,0,0,0h0Z"/>
        </g>
        <g id="g284">
          <path id="path282" class="st4" d="M176,562.9c0,.3-.2.6-.3,1h0c.1-.3.3-.6.4-1Z"/>
        </g>
        <g id="g288">
          <path id="path286" d="M268.6,191.1h0c-.3-.4-.6-.7-.9-1,.3.3.7.6,1,1Z"/>
        </g>
        <g id="g292">
          <path id="path290" d="M269.3,191.9c-.2-.3-.4-.5-.6-.7h0s.4.5.6.7Z"/>
        </g>
        <g id="g296">
          <path id="path294" d="M276.2,220.2c0,.3,0,.5-.1.7,0,.2,0,.4,0,.6,0,.4-.1.9-.3,1.3.2-.8.3-1.6.4-2.4,0,0,0-.1,0-.2,1.2-8-.1-16.1-3.4-22.6,0-.2-.1-.3-.3-.5-.4-.9-.9-1.7-1.4-2.5-.3-.4-.5-.7-.7-1.1.4.3.6.7.9,1.1,0,0,0,0,0,.1.5.8,1,1.6,1.4,2.5l.6.4h-.5c3.2,6.5,4.5,14.7,3.3,22.6Z"/>
        </g>
        <g id="g300">
          <path id="path298" class="st4" d="M268.6,191.1h0c-.3-.4-.6-.7-.9-1,.3.3.7.6,1,1Z"/>
        </g>
        <g id="g304">
          <path id="path302" class="st4" d="M273.4,197.5h-.5s-.1-.3-.2-.4l.6.4Z"/>
        </g>
        <g id="g308">
          <path id="path306" class="st4" d="M290.2,222.3c1.5-7.4.9-15-1.4-21.6,2.4,6.6,3.1,14.3,1.4,21.6Z"/>
        </g>
        <g id="g312">
          <path id="path310" class="st4" d="M268.6,191.1h0c-.3-.4-.6-.7-.9-1,.3.3.7.6,1,1Z"/>
        </g>
        <g id="g316">
          <path id="path314" class="st4" d="M269.3,191.9c-.2-.3-.4-.5-.6-.7h0s.4.5.6.7Z"/>
        </g>
        <g id="g320">
          <path id="path318" class="st4" d="M276.2,220.2c0,.3,0,.5-.1.7,0,.2,0,.4,0,.6,0,.4-.1.9-.3,1.3.2-.8.3-1.6.4-2.4,0,0,0-.1,0-.2,1.2-8-.1-16.1-3.4-22.6,0-.2-.1-.3-.3-.5-.4-.9-.9-1.7-1.4-2.5-.3-.4-.5-.7-.7-1.1.3.3.6.7.9,1.1,0,0,0,0,0,.1.5.8,1,1.6,1.4,2.5,0,.1,0,.3.2.4,3.2,6.5,4.5,14.7,3.3,22.6Z"/>
        </g>
        <g id="g324">
          <path id="path322" class="st4" d="M2.5,490.9c-.7-1.8-1.3-3.7-1.7-5.5,0-.5-.2-1-.3-1.5h0c0,0,0-.3,0-.5,0-.2,0-.3,0-.4.1.9.3,1.8.5,2.6,0,.3.2.6.3.9.3,1.5.8,3,1.3,4.4Z"/>
        </g>
        <g id="g328">
          <path id="path326" class="st4" d="M17.3,511.7c-.6-.3-1.1-.8-1.6-1.3-.3-.3-.6-.5-.8-.8.6.5,1.1,1,1.7,1.5.2.2.4.4.7.6Z"/>
        </g>
        <g id="g332">
          <path id="path330" class="st4" d="M159.9,575.9c0,.4-.2.8-.3,1.2-.1.3-.3.6-.4.9,0,0,0,.1,0,.2-.1.4-.3.8-.5,1.1-.4.8-.9,1.6-1.5,2.2-.2.3-.4.5-.6.7-.2.2-.4.4-.6.6,0,0,0,0-.1,0l-1.1.6c.4-.2.7-.5,1-.8.4-.3.9-.7,1.2-1.2.3-.3.6-.7.8-1,.5-.6.9-1.3,1.2-2.1.2-.5.4-1.1.6-1.6.1-.3.2-.6.3-.9h0Z"/>
        </g>
        <g id="g336">
          <path id="path334" class="st4" d="M163.6,269c-.1-.6-.3-1.2-.5-1.8h0c.2.6.3,1.2.4,1.8Z"/>
        </g>
        <g id="g340">
          <path id="path338" class="st4" d="M164.3,273s0-.3,0-.4c0-.8-.2-1.6-.3-2.4.3.9.4,1.9.4,2.8Z"/>
        </g>
        <g id="g344">
          <path id="path342" class="st4" d="M164.4,273.2s0-.1,0-.2h0c0,0,0,0,0,.2Z"/>
        </g>
        <g id="g348">
          <path id="path346" d="M160.3,574c0,.3,0,.5-.1.8,0,.4-.1.8-.3,1.1,0,.4-.2.8-.3,1.2-.1.3-.3.6-.4.9,0,0,0,.1,0,.2-.1.4-.3.8-.5,1.1-.4.8-.9,1.6-1.5,2.2-.2.3-.4.5-.6.7-.2.2-.4.4-.6.6,0,0,0,0-.1,0l-1.1.6c.4-.2.7-.5,1-.8.4-.3.9-.7,1.2-1.2.3-.3.6-.7.8-1,.5-.6.9-1.3,1.2-2.1.2-.5.4-1.1.6-1.6.1-.3.2-.6.3-.9,0-.2.2-.5.2-.7,0-.3.1-.6.2-.9,0,0,0-.2,0-.3Z"/>
        </g>
        <g id="g352">
          <path id="path350" d="M160.4,572.7c0,.3,0,.5,0,.7v-.2s0-.3,0-.5Z"/>
        </g>
        <g id="g356">
          <path id="path354" class="st1" d="M160.3,574c0,.3,0,.5-.1.8,0-.1,0-.3,0-.4,0,0,0-.2,0-.3Z"/>
        </g>
        <g id="g360">
          <path id="path358" class="st1" d="M160.3,574c0,.3,0,.5-.1.8,0-.1,0-.3,0-.4,0,0,0-.2,0-.3Z"/>
        </g>
        <g id="g364">
          <path id="path362" class="st4" d="M159.2,578.1s0,.1,0,.2c-.1.4-.3.8-.5,1.1-.4.8-.9,1.6-1.5,2.2-.2.3-.4.5-.6.7-.2.2-.4.4-.6.6,0,0,0,0-.1,0-.2.2-.3.3-.6.4-.1,0-.2.2-.3.3-.9.6-1.9,1-3,1.2.9-.3,1.8-.6,2.5-1.1h0s.2-.1.3-.2c.4-.2.7-.5,1-.8.4-.3.9-.7,1.2-1.2.3-.3.6-.7.8-1,.5-.6.9-1.3,1.2-2.1,0-.2.1-.3.2-.5Z"/>
        </g>
        <g id="g368">
          <path id="path366" class="st4" d="M160.3,574c0,.3,0,.5-.1.8,0,.4-.1.8-.3,1.1,0,.4-.2.8-.3,1.2-.1.3-.3.6-.4.9.1-.4.3-.8.4-1.2.1-.3.2-.6.3-.9,0-.2.1-.4.2-.7,0-.3.1-.6.2-.9,0,0,0-.2,0-.3Z"/>
        </g>
        <g id="g372">
          <path id="path370" class="st4" d="M160.4,572.7c0,.3,0,.5,0,.7v-.2s0-.3,0-.5Z"/>
        </g>
        <g id="g376">
          <path id="path374" d="M17.4,181.7c-.3.2-.6.3-.9.6.1-.1.3-.2.4-.3.2,0,.3-.2.5-.3Z"/>
        </g>
        <g id="g380">
          <path id="path378" d="M22.1,181.4c-.3,0-.5-.1-.7-.2h.2s.4,0,.6.2Z"/>
        </g>
        <g id="g384">
          <path id="path382" class="st4" d="M4.2,181.4c0,.3,0,.6,0,.8v-.3s0-.3,0-.5Z"/>
        </g>
        <g id="g388">
          <path id="path386" class="st4" d="M4.5,179.7s0,.2,0,.3v-.2s0,0,0,0Z"/>
        </g>
        <g id="g392">
          <path id="path390" class="st4" d="M4.6,179.4s0,0,0,0h0c0,0,0,0,0,0Z"/>
        </g>
        <g id="g396">
          <path id="path394" class="st4" d="M19.7,169.7h0c0,0-.1,0-.2,0-.3,0-.6-.1-.9-.2-.1,0-.3,0-.4,0h-.4c-.3,0-.6,0-.8,0-.3,0-.5,0-.8,0h-.2s-.4,0-.6,0c-.3,0-.6,0-.8,0-.4,0-.7.1-1.1.2,0,0-.1,0-.2,0,0,0,0,0,0,0,0,0-.3,0-.5.1h0s0,0,0,0c-.2,0-.3,0-.5.2-.2,0-.3.1-.5.2-.5.2-.9.4-1.3.6l1.2-.7s0,0,0,0c0,0,0,0,0,0,0,0,0,0,0,0,.3-.1.7-.3,1.1-.3.2,0,.4-.1.6-.2.4,0,.8-.2,1.2-.2.5,0,1,0,1.5,0,.8,0,1.6,0,2.5.2.4,0,.9.2,1.3.3h0Z"/>
        </g>
        <g id="g400">
          <path id="path398" d="M20.8,170c-.3,0-.7-.2-1.1-.3,0,0-.1,0-.2,0-.3,0-.6-.1-.9-.2,0,0-.2,0-.3,0h-.6c-.3,0-.6,0-.8,0-.3,0-.5,0-.8,0h-.2s-.4,0-.6,0c-.3,0-.6,0-.8,0-.4,0-.7.1-1.1.2,0,0-.1,0-.2,0,0,0,0,0,0,0,0,0-.3,0-.5.1h0s0,0,0,0c-.2,0-.3,0-.5.2-.2,0-.3.1-.5.2-.5.2-.9.4-1.3.6l1.2-.7s0,0,0,0c0,0,0,0,0,0,0,0,0,0,0,0,.3-.1.7-.3,1.1-.3.2,0,.4-.1.6-.2.4,0,.8-.2,1.2-.2.5,0,1,0,1.5,0,.8,0,1.6,0,2.5.2.4,0,.9.2,1.3.3.3,0,.6.2.9.3,0,0,.1,0,.2,0h0Z"/>
        </g>
        <g id="g404">
          <path id="path402" d="M23.8,171.2s-.3-.1-.5-.2c0,0-.1,0-.2,0,0,0,.4.2.6.3Z"/>
        </g>
        <g id="g408">
          <path id="path406" class="st1" d="M20.6,170c-.3,0-.6-.2-.9-.2-.4-.1-.9-.2-1.3-.3.4,0,.9.2,1.3.3.3,0,.6.2.9.3Z"/>
        </g>
        <g id="g412">
          <path id="path410" class="st1" d="M23.8,171.2s-.3-.1-.5-.2c0,0-.1,0-.2,0-.1,0-.3,0-.4-.2.1,0,.3,0,.4.1.2.1.4.2.6.3Z"/>
        </g>
        <g id="g416">
          <path id="path414" class="st1" d="M34.2,160.7c-.3,0-.6-.1-.9-.2h-.2s-.1,0-.2,0-.2,0-.2,0c-.5,0-1.1,0-1.6,0-2.2,0-4.2.6-5.9,1.6l-13.6,8.1s0,0,0,0c0,0,0,0,0,0,0,0,0,0,0,0-.4.2-.9.4-1.2.6l.6-.4,14.3-8.6c2.4-1.4,5.3-1.9,8.5-1.2.3,0,.6.1.9.2.2,0,.3,0,.5,0,.5.1.9.3,1.4.4-.7-.3-1.5-.4-2.2-.6h0Z"/>
        </g>
        <g id="g420">
          <path id="path418" class="st4" d="M4.2,181.4c0,.3,0,.6,0,.8h0c0,0,0,0,0,0,0,0,0-.3,0-.4,0-.2,0-.3,0-.5Z"/>
        </g>
        <g id="g424">
          <path id="path422" class="st4" d="M4.5,179.7s0,.2,0,.3v-.2s0,0,0,0Z"/>
        </g>
        <g id="g428">
          <path id="path426" class="st4" d="M4.6,179.1s0,.2,0,.3c0,0,0,0,0,0h0c0,0,0-.3,0-.4Z"/>
        </g>
        <g id="g432">
          <path id="path430" class="st4" d="M20.8,170c-.3,0-.7-.2-1.1-.3,0,0-.1,0-.2,0-.3,0-.6-.1-.9-.2,0,0-.2,0-.3,0h-.6c-.3,0-.6,0-.8,0-.3,0-.5,0-.8,0h-.2s-.4,0-.6,0c-.3,0-.6,0-.8,0-.4,0-.7.1-1.1.2,0,0-.1,0-.2,0,0,0,0,0,0,0,0,0-.3,0-.5.1h0s0,0,0,0c-.2,0-.3,0-.5.2-.2,0-.3.1-.5.2-.5.2-.9.4-1.3.6-.5.3-1,.7-1.5,1.1-.2.2-.4.3-.6.5-.2.2-.3.3-.5.6-.2.2-.3.3-.4.5-.2.2-.4.5-.6.7.9-1.5,2-2.7,3.4-3.5l.6-.4s.4-.2.6-.2c0,0,0,0,0,0,0,0,0,0,0,0,0,0,0,0,0,0,.3-.1.7-.3,1.1-.3.2,0,.4-.1.6-.2.4,0,.8-.2,1.2-.2.5,0,1,0,1.5,0,.8,0,1.6,0,2.5.2.4,0,.9.2,1.3.3.3,0,.6.2.9.3,0,0,.1,0,.2,0h0Z"/>
        </g>
        <g id="g436">
          <path id="path434" class="st4" d="M23.8,171.2s-.3-.1-.5-.2c0,0-.1,0-.2,0-.1,0-.3,0-.4-.2.1,0,.3,0,.4.1.2.1.4.2.6.3Z"/>
        </g>
        <g id="g440">
          <path id="path438" class="st4" d="M118.2,237.6l-1.4.8s.3-.3.4-.3c0,0,0,0,.2-.1,0,0,0,0,0,0,0,0,.2-.1.3-.2.1,0,.3-.1.4-.1Z"/>
        </g>
        <g id="g444">
          <path id="path442" class="st4" d="M119.7,237.6c-.5,0-1,0-1.5,0h0s0,0,.1,0h.3s.3,0,.3,0h0s.4,0,.6,0h0Z"/>
        </g>
        <g id="g448">
          <path id="path446" class="st4" d="M120.7,237.8s0,0,0,0h0Z"/>
        </g>
        <g id="g452">
          <path id="path450" class="st4" d="M110.2,246.8s0,0-.1.1c-.1,0-.2.1-.3.1.2,0,.3-.1.5-.3Z"/>
        </g>
        <g id="g456">
          <path id="path454" class="st4" d="M121.7,238.1h-.1c0,0-.3,0-.4-.1h0s-.2-.1-.3-.1h0s0,0,0,0c.3.1.6.3.9.3Z"/>
        </g>
        <g id="g460">
          <path id="path458" d="M119.7,237.6c-.5,0-1,0-1.5,0h0s0,0,.1,0h.3s.3,0,.3,0h0s.4,0,.6,0h0Z"/>
        </g>
        <g id="g464">
          <path id="path462" d="M121.7,238.1h-.1c0,0-.3,0-.4-.1h0s-.2-.1-.3-.1c0,0,0,0,0,0h.2c.3.1.6.3.9.3Z"/>
        </g>
        <g id="g468">
          <path id="path466" d="M118.2,237.6l-1.4.8s.3-.3.4-.3c0,0,0,0,.2-.1,0,0,0,0,0,0,0,0,.2-.1.3-.2.1,0,.3-.1.4-.1Z"/>
        </g>
        <g id="g472">
          <path id="path470" class="st4" d="M118.2,237.6c-.3,0-.5.2-.7.3,0,0,.2-.1.3-.2.1,0,.3-.1.4-.1Z"/>
        </g>
        <g id="g476">
          <path id="path474" class="st4" d="M119.7,237.6c-.5,0-1,0-1.5,0h0s0,0,.1,0h.3s.3,0,.3,0h0s.4,0,.6,0h0Z"/>
        </g>
        <g id="g480">
          <path id="path478" class="st4" d="M121.7,238.1h-.1c0,0-.3,0-.4-.1h0s-.2-.1-.3-.1c0,0,0,0,0,0h.2c.3.1.6.3.9.3Z"/>
        </g>
        <g id="g484">
          <path id="path482" class="st4" d="M150.9,246.1h0c-.8-.8-1.6-1.6-2.5-2.3-.4-.3-.9-.7-1.3-1.1.3.2.5.3.8.6.1,0,.2.2.3.3.6.4,1.2.9,1.7,1.5.3.3.7.6,1.1,1Z"/>
        </g>
        <g id="g488">
          <path id="path486" class="st4" d="M163.2,267.1h0c-.3-.9-.6-1.9-.9-2.8-.1-.4-.3-.8-.4-1.2-.6-1.6-1.3-3-2-4.5-.5-.9-.9-1.8-1.5-2.6-.8-1.3-1.6-2.6-2.5-3.9-.3-.4-.6-.9-.9-1.3-1.2-1.6-2.6-3.2-4-4.6h0c.3.2.6.5.8.8.6.7,1.2,1.4,1.8,2.1,1.2,1.4,2.4,2.9,3.4,4.5.5.8,1,1.6,1.5,2.4.4.7.8,1.4,1.2,2.1,1,1.9,1.8,3.8,2.5,5.8.4,1.1.8,2.2,1.1,3.3Z"/>
        </g>
        <g id="g492">
          <path id="path490" class="st4" d="M110.2,246.8s0,0-.1.1c-.1,0-.2.1-.3.1.2,0,.3-.1.5-.3Z"/>
        </g>
        <g id="g496">
          <path id="path494" class="st4" d="M118.2,237.6l-1.4.8s.3-.3.4-.3c0,0,0,0,.2-.1,0,0,0,0,0,0,0,0,.2-.1.3-.2.1,0,.3-.1.4-.1Z"/>
        </g>
        <g id="g500">
          <path id="path498" class="st4" d="M119.7,237.6c-.5,0-1,0-1.5,0h0s0,0,.1,0h.3s.3,0,.3,0h0s.4,0,.6,0h0Z"/>
        </g>
        <g id="g504">
          <path id="path502" class="st4" d="M121.1,238h0s-.2-.1-.3-.1c0,0,0,0,0,0h0s.2,0,.2,0c0,0,.1,0,.2,0Z"/>
        </g>
        <g id="g508">
          <path id="path506" class="st4" d="M22.1,181.4c-.3,0-.5-.1-.7-.2h.2s.4,0,.6.2Z"/>
        </g>
        <g id="g512">
          <path id="path510" class="st7" d="M179.5,267.9v.3l-4,293.1v.3c0,.7,0,1.4-.1,2-.5,5.4-2.7,9.3-6,11.2l-14.6,8.7s.2-.2.3-.3c.2-.1.4-.3.6-.4,0,0,0,0,.1,0,.3-.2.4-.4.6-.6.2-.2.4-.5.6-.7.6-.6,1-1.4,1.5-2.2.2-.3.4-.7.5-1.1,0,0,0,0,0-.2.2-.3.3-.6.4-.9,0-.4.2-.8.3-1.2.1-.3.2-.7.3-1.1,0-.3.1-.5.1-.8s0-.2,0-.3h0c0,0,0-.3,0-.4,0-.2,0-.4,0-.7s0-.3,0-.5c0-.5,0-1,0-1.6v-5.6c0,0,0-5.6,0-5.6l3.9-282.2v-.3c0-.4,0-.8,0-1.2,0-.5,0-.9,0-1.4v-.3s0-.4,0-.6h0c0-.1,0-.3,0-.4,0-.9-.2-1.9-.4-2.8,0-.3-.1-.7-.2-1.1h0c0-.7-.2-1.4-.4-2-.3-1.1-.6-2.2-1.1-3.3-.7-1.9-1.5-3.9-2.5-5.8-.3-.7-.7-1.4-1.2-2.1-.4-.8-.9-1.6-1.5-2.4-1-1.6-2.1-3.1-3.4-4.5-.6-.7-1.2-1.4-1.8-2.1-.3-.3-.5-.6-.8-.9h0c-.3-.4-.7-.7-1.1-1-.6-.6-1.1-1.1-1.7-1.5,0,0-.2-.2-.3-.3-.3-.2-.5-.4-.8-.6-.4-.4-.9-.7-1.3-1,0,0,0,0,0,0,0,0,0,0,0,0-.6-.5-1.3-.9-2-1.2,0,0-.1,0-.2-.1l-12.8-7.4-.9-.6-1.2-.7h-.2c0,0-59.1-34.3-59.1-34.3l-5.4-3.1-7.2-4.1-21.6-12.5-4.8-2.8-.5-.3-3.6-2.1s-.1,0-.2-.1c-.4-.2-.9-.5-1.3-.7,0,0-.1,0-.2,0-.1,0-.3-.1-.5-.2-.2-.1-.4-.2-.6-.3-.1,0-.3,0-.4-.1-.2,0-.5-.2-.7-.3-.4-.1-.8-.3-1.2-.4,0,0-.1,0-.2,0-.3,0-.6-.2-.9-.3-.4,0-.9-.2-1.3-.3-.9-.1-1.7-.2-2.5-.2s-1,0-1.5,0c-.4,0-.8.1-1.2.2-.2,0-.4,0-.6.2-.4,0-.7.2-1.1.3l13.6-8.1c1.7-1,3.7-1.6,5.9-1.6s1.1,0,1.6,0c0,0,.1,0,.2,0s.1,0,.2,0h.2c.4,0,.9.1,1.2.3.6.1,1.2.3,1.8.5.6.2,1.2.4,1.9.7.8.3,1.6.7,2.4,1.2,0,0,.1,0,.2.1l117.4,67.9s.1,0,.2.1c2.8,1.7,5.6,4,8,6.6.6.7,1.2,1.4,1.9,2.1.5.7,1,1.3,1.5,2,.4.6.9,1.2,1.3,1.8,1.2,1.8,2.3,3.7,3.4,5.6,1.3,2.6,2.4,5.3,3.2,8,.3.9.5,1.8.7,2.7.6,2.6.9,5.3.9,7.8h0,0Z"/>
        </g>
        <g id="g516">
          <path id="path514" class="st7" d="M33.7,160.6c.3,0,.6.1.9.2-.4-.1-.8-.2-1.2-.3h.4Z"/>
        </g>
        <g id="g520">
          <path id="path518" class="st7" d="M36.4,161.3c-.6-.2-1.2-.4-1.8-.5.2,0,.3,0,.5,0,.5.1.9.3,1.4.4Z"/>
        </g>
        <g id="g524">
          <path id="path522" d="M163.6,269c-.1-.6-.3-1.2-.5-1.8-.3-.9-.6-1.9-.9-2.9-.1-.4-.3-.8-.4-1.2-.6-1.6-1.3-3-2-4.5-.5-.9-.9-1.8-1.5-2.6-.8-1.3-1.6-2.6-2.5-3.9-.3-.4-.6-.9-.9-1.3-1.2-1.6-2.6-3.2-4-4.6-.8-.8-1.6-1.6-2.5-2.3-.4-.3-.9-.7-1.3-1.1.3.2.5.3.8.6.1,0,.2.2.3.3.6.4,1.2.9,1.7,1.5.3.3.7.6,1.1,1h0c.3.3.6.6.8.9.6.7,1.2,1.4,1.8,2.1,1.2,1.4,2.4,2.9,3.4,4.5.5.8,1,1.6,1.5,2.4.4.7.8,1.4,1.2,2.1,1,1.9,1.8,3.8,2.5,5.8.4,1.1.8,2.2,1.1,3.3.2.6.3,1.2.4,1.9Z"/>
        </g>
        <g id="g528">
          <path id="path526" d="M164.3,273s0-.3,0-.4c0-.8-.2-1.6-.3-2.4.3.9.4,1.9.4,2.8Z"/>
        </g>
        <g id="g532">
          <path id="path530" d="M164.4,273.2s0-.1,0-.2h0c0,0,0,0,0,.2Z"/>
        </g>
        <g id="g536">
          <path id="path534" d="M118.4,237.6h-.1.4-.3ZM120.8,237.8h0s.2.1.2.1h0c0,0,0,0,0,0,0,0,.3.1.4.2h.1c-.3-.1-.6-.3-.9-.4h0ZM159.8,575.9c0,.3-.1.6-.3.9.1-.3.2-.6.3-.9,0-.2.1-.4.2-.7,0,.2-.1.5-.2.7ZM158.9,578.5s.1-.3.2-.5c.1-.4.3-.8.4-1.2-.2.6-.4,1.1-.6,1.6ZM14.9,509.6c.3.3.6.5.8.8.3.3.6.5.9.7-.6-.5-1.2-1-1.7-1.5ZM.4,483v.4c0,.2,0,.3,0,.4h0c0,.6.2,1,.3,1.6,0,0,0,.1,0,.2-.2-.9-.4-1.8-.5-2.6h0ZM21.5,181.2h-.2s.5,0,.7.2c-.2,0-.4-.1-.6-.2ZM4.1,181.9v.3c0-.3,0-.6,0-.8,0,.2,0,.3,0,.5Z"/>
        </g>
        <g id="g540">
          <path id="path538" class="st9" d="M164.5,275.6c0-.5,0-.9,0-1.4v-.3s0-.4,0-.6h0c0-.1,0-.3,0-.3h0c0,0,0-.4,0-.5,0-.8-.2-1.6-.3-2.4,0-.3-.1-.7-.2-1.1h0c-.1-.7-.3-1.3-.5-1.9-.3-.9-.6-1.9-.9-2.9-.1-.4-.3-.8-.4-1.2-.6-1.6-1.3-3-2-4.5-.5-.9-.9-1.8-1.5-2.6-.8-1.3-1.6-2.6-2.5-3.9-.3-.4-.6-.9-.9-1.3-1.2-1.6-2.6-3.2-4-4.6-.8-.8-1.6-1.6-2.5-2.3-.4-.3-.9-.7-1.3-1.1-.4-.4-.9-.7-1.3-1,0,0,0,0,0,0,0,0,0,0,0,0-.6-.5-1.3-.9-2-1.2,0,0-.1,0-.2-.1l-12.8-7.4-.9-.6-1.2-.7h-.2c0,0-59.1-34.3-59.1-34.3l-5.4-3.1-7.2-4.1-21.6-12.5-4.8-2.8-.5-.3-3.6-2.1s-.1,0-.2-.1c-.4-.2-.9-.5-1.3-.7,0,0-.1,0-.2,0-.1,0-.3-.1-.5-.2-.2,0-.3-.1-.5-.2,0,0-.1,0-.2,0-.1,0-.3,0-.4-.2-.2,0-.5-.2-.7-.3-.4-.1-.8-.3-1.2-.4-.3,0-.7-.2-1.1-.3,0,0-.1,0-.2,0-.3,0-.6-.1-.9-.2-.1,0-.3,0-.4,0h-.4c-.3,0-.6,0-.8,0-.3,0-.5,0-.8,0h-.2s-.4,0-.6,0c-.3,0-.6,0-.8,0-.4,0-.7.1-1.1.2,0,0-.1,0-.2,0,0,0,0,0,0,0,0,0-.3,0-.5.1h0s0,0,0,0c-.2,0-.3,0-.5.2-.2,0-.3.1-.5.2-.5.2-.9.4-1.3.6-.5.3-1,.7-1.5,1.1-.2.2-.4.3-.6.5s-.3.3-.5.6c-.2.2-.3.3-.4.5-.2.2-.4.5-.6.7-.2.3-.5.7-.6,1.1-.2.4-.4.8-.6,1.2,0,0,0,.2,0,.3,0,.2-.2.3-.2.6,0,.2-.2.4-.2.6,0,.2-.1.4-.2.6,0,0,0,0,0,.1,0,.2-.1.4-.2.7,0,0,0,0,0,0,0,0,0,.2,0,.2v.3h0c0,0,0,.2,0,.2,0,0,0,.1,0,.2,0,.1,0,.3,0,.4,0,0,0,.1,0,.2s0,.2,0,.3,0,0,0,.2c0,.3,0,.6,0,.8h0c0,0,0,0,0,0v.2c0,.6,0,1.2,0,1.8L0,477.5v.7c0,.8,0,1.6.1,2.4,0,.5,0,1,.2,1.6,0,.3,0,.6.1.9.1.9.3,1.8.5,2.6,0,.3.2.6.3.9.2.7.4,1.5.6,2.2.2.7.5,1.5.7,2.2.3.9.7,1.8,1.1,2.6.3.8.7,1.6,1.1,2.4,0,.2.1.3.2.4.4.8.8,1.6,1.2,2.3.4.7.9,1.5,1.3,2.2.3.4.5.8.8,1.2.4.6.8,1.1,1.2,1.6.7.9,1.4,1.8,2.2,2.7.4.5.9,1,1.3,1.5.6.7,1.3,1.3,1.9,1.9.6.5,1.1,1,1.7,1.5.2.2.4.4.7.6.5.4,1,.8,1.6,1.2.8.6,1.5,1,2.4,1.5l117.4,67.9c.9.5,1.8.9,2.6,1.3.4.2.9.3,1.2.5.4.2.9.3,1.2.4.8.2,1.5.4,2.2.5h0c.9.1,1.7.2,2.5.2s1,0,1.5,0c0,0,0,0,.1,0,.6,0,1.1-.2,1.7-.3.9-.3,1.8-.6,2.5-1.1h0s.2-.1.3-.2c.4-.2.7-.5,1-.8.4-.3.9-.7,1.2-1.2.3-.3.6-.7.8-1,.5-.6.9-1.3,1.2-2.1.2-.5.4-1.1.6-1.6.1-.3.2-.6.3-.9,0-.2.2-.5.2-.7,0-.3.1-.6.2-.9,0,0,0-.2,0-.3,0,0,0-.2,0-.3h0c0,0,0-.3,0-.4v-.2s0-.3,0-.5c0-.1,0-.3,0-.5,0-.5,0-1,0-1.6v-5.6c0,0,0-5.6,0-5.6l3.9-282.2v-.3c0-.4,0-.8,0-1.2h0s0,0,0,0ZM151.4,561.5v3.5c0,.5,0,1.1-.2,1.6,0,0,0,.1,0,.2-.3,2.5-1.3,4.4-2.8,5.5-.2.2-.4.3-.6.4,0,0,0,0-.1,0,0,0,0,0-.1,0-.1,0-.3.1-.5.2-.4.2-.9.3-1.3.4-.4,0-.8.1-1.2.1-1.7,0-3.6-.6-5.6-1.7l-108.5-62.8-8.8-5.1c-6.8-3.9-12.3-13.4-12.2-21.1v-11c.1,0,4-282.2,4-282.2,0-.3,0-.7,0-1h0c0-.3,0-.5,0-.7,0-.1,0-.3,0-.4,0,0,0,0,0-.1,0-.1,0-.2,0-.3,0-.3,0-.5.2-.7,0-.2,0-.3.1-.5,0,0,0-.2.1-.3,0,0,0,0,0-.1,0-.3.2-.5.3-.7,0-.1.1-.3.2-.4,0-.1.1-.3.2-.3.1-.3.3-.4.5-.6.3-.3.5-.6.8-.8,0,0,.2-.2.3-.3,0,0,0,0,0,0,.1-.1.3-.2.4-.3.2,0,.3-.2.5-.3.4-.2.8-.3,1.2-.4,0,0,.2,0,.3,0,.4,0,.8-.1,1.2-.1s.8,0,1.2,0h.2s.4,0,.6.2h0s.1,0,.2,0c.2,0,.4,0,.6.2.3,0,.6.2.9.3,0,0,.1,0,.2,0,.3,0,.6.2.8.4.1,0,.2.1.3.2.2,0,.4.2.6.3l2.4,1.4,19.3,11.1c1.7,1,3.8,3.6,4.6,5.7l5.9,15c.9,2.2,2.9,4.7,4.6,5.7l43.2,25c.8.5,1.7.7,2.5.7h.1s.1,0,.2,0h0s.3,0,.5,0c.2,0,.3,0,.5-.2.2,0,.3-.1.5-.3.2,0,.3-.2.4-.4l3.7-4.8,2.5-3.2s.3-.3.4-.3c0,0,0,0,.2-.1,0,0,0,0,0,0,0,0,.2-.1.3-.2.1,0,.3-.1.4-.1h0s0,0,.1,0h.3s.3,0,.3,0h0s.4,0,.6,0h.2s.3,0,.4,0c0,0,0,0,0,0,0,0,.2,0,.3,0h.2c.3.1.6.3.9.3h-.1c0,0,1.4.9,1.4.9h.1c0,0,20.1,11.7,20.1,11.7,6.8,4,12.2,13.4,12.1,21.1l-4,289.7h0s0,0,0,0Z"/>
        </g>
        <g id="g544">
          <path id="path542" class="st2" d="M155.3,271.8l-4,289.7v3.5c0,.5,0,1.1-.2,1.6,0,0,0,.1,0,.2-.3,2.5-1.3,4.4-2.8,5.5-.2.2-.4.3-.6.4,0,0,0,0-.1,0,0,0,0,0-.1,0-.1,0-.3.1-.5.2-.4.2-.9.3-1.3.4-.4,0-.8.1-1.2.1-1.7,0-3.6-.6-5.6-1.7l-108.5-62.8-8.8-5.1c-6.8-3.9-12.3-13.4-12.2-21.1v-11c.1,0,4-282.2,4-282.2,0-.3,0-.7,0-1h0c0-.3,0-.5,0-.7,0-.1,0-.3,0-.4,0,0,0,0,0-.1,0-.1,0-.2,0-.3,0-.3,0-.5.2-.7,0-.2,0-.3.1-.5,0,0,0-.2.1-.3,0,0,0,0,0-.1,0-.3.2-.5.3-.7,0-.1.1-.3.2-.4,0-.1.1-.3.2-.3.2-.2.3-.4.5-.6.3-.3.5-.6.8-.8,0,0,.2-.2.3-.3,0,0,0,0,0,0,.3-.2.6-.4.9-.6.4-.2.8-.3,1.2-.4,0,0,.2,0,.3,0,.4,0,.8-.1,1.2-.1s.8,0,1.2,0c.2,0,.5,0,.7.2h0s.1,0,.2,0c.2,0,.4,0,.6.2.3,0,.6.2.9.3,0,0,.1,0,.2,0,.3,0,.6.2.8.4.1,0,.2.1.3.2.2,0,.4.2.6.3l2.4,1.4,19.3,11.1c1.7,1,3.8,3.6,4.6,5.7l5.9,15c.9,2.2,2.9,4.7,4.6,5.7l43.2,25c.8.5,1.7.7,2.5.7h.4c.2,0,.3,0,.5-.1.2,0,.3,0,.5-.2.1,0,.2,0,.3-.1,0,0,0,0,.1-.1.2,0,.3-.2.4-.4l3.7-4.8,2.5-3.2,1.4-.8h0c.5-.1.9-.1,1.5,0h.2s.3,0,.4,0c0,0,0,0,0,0,0,0,.2,0,.3,0,0,0,0,0,0,0,.1,0,.3,0,.3.1h0s.3.1.4.2l1.4.8h.1c0,0,20.1,11.7,20.1,11.7,6.8,4,12.2,13.4,12.1,21.1h0Z"/>
        </g>
        <g id="g548">
          <path id="path546" d="M148.4,243.8c-.4-.3-.9-.7-1.3-1.1.3.2.5.3.8.6.1,0,.2.2.3.3,0,0,.2.2.3.3Z"/>
        </g>
        <g id="g552">
          <path id="path550" d="M163.6,269c-.1-.6-.3-1.2-.5-1.8,0-.1,0-.3,0-.4,0-.1,0-.3-.1-.4-.2-.7-.4-1.4-.7-2.1-.1-.4-.3-.8-.4-1.2-.6-1.6-1.3-3-2-4.5-.5-.9-.9-1.8-1.5-2.6-.8-1.3-1.6-2.6-2.5-3.9-.3-.4-.6-.9-.9-1.3-1.2-1.6-2.6-3.2-4-4.6-.8-.8-1.6-1.6-2.5-2.3.5.4,1,.8,1.5,1.2.3.3.7.6,1.1,1,.3.3.6.6.9.9.6.7,1.2,1.4,1.8,2.1,1.2,1.4,2.3,3,3.4,4.5.5.8,1,1.6,1.5,2.4.4.7.8,1.4,1.2,2.1,1,1.9,1.8,3.8,2.5,5.8.4,1.1.8,2.2,1.1,3.3.2.6.3,1.2.4,1.9Z"/>
        </g>
        <g id="g556">
          <path id="path554" d="M164.3,273s0-.3,0-.4c0-.8-.2-1.6-.3-2.4.3.9.4,1.9.4,2.8Z"/>
        </g>
        <g id="g560">
          <path id="path558" d="M164.4,273.2s0-.1,0-.2h0c0,0,0,0,0,.2Z"/>
        </g>
        <g id="g564">
          <path id="path562" class="st1" d="M163.6,269c-.1-.6-.3-1.2-.5-1.9,0-.1,0-.3-.1-.4,0-.1,0-.3-.1-.4-.2-.9-.5-1.7-.8-2.5.4,1.1.8,2.2,1.1,3.3.2.6.3,1.2.4,1.9Z"/>
        </g>
        <g id="g568">
          <path id="path566" class="st1" d="M164.3,273s0-.3,0-.4c0-.8-.2-1.6-.3-2.4.3.9.4,1.9.4,2.8Z"/>
        </g>
        <g id="g572">
          <path id="path570" class="st1" d="M164.4,273.2s0-.1,0-.2h0c0,0,0,0,0,.2Z"/>
        </g>
      </g>
    </g>
  </g>
  <g id="g42">
    <g class="st3">
      <g id="g40">
        <g id="g38">
          <path id="path36" d="M144.5,87.9c.2-3.2,3.1-6,6.2-6.1,18.3-.9,32.9-15.9,32.9-34.5s-15.3-34.4-34.5-34.4-21.7,5.7-27.9,14.3c3.1-1.7,7.6,0,9,3.3,1.3,3.3-.7,7.6-4.2,8.6l-14.2,5.8c-1,.4-2.1.6-3.1.5-1.9-.2-3.6-1.3-4.6-2.9l-9-13.9c-2.2-2.8-1.4-7.4,1.6-9.4,3-2,7.5-.8,9.2,2.3l2,3C115.7,9.9,131.3,0,149.1,0,175.1,0,196.4,21.2,196.4,47.4s-20.1,46.2-45.1,47.4c-3.6,0-6.8-2.5-6.8-6.8Z"/>
        </g>
      </g>
    </g>
  </g>
</svg>