<?xml version="1.0" encoding="UTF-8"?>
<svg id="svg2" xmlns="http://www.w3.org/2000/svg" xmlns:svg="http://www.w3.org/2000/svg" version="1.1" viewBox="0 0 32 32">
  <!-- Generator: Adobe Illustrator 29.6.0, SVG Export Plug-In . SVG Version: 2.1.1 Build 207)  -->
  <defs>
    <style>
      .st0 {
        fill: #121111;
      }
    </style>
  </defs>
  <path id="path36" class="st0" d="M12.7,12.4v7.1c0,.5.2.9.7,1.2.5.2.9.2,1.4,0l5.5-3.5c.4-.2.6-.6.6-1.1s-.2-.9-.6-1.1l-5.5-3.5c-.4-.3-.9-.3-1.4,0-.5.2-.7.6-.7,1.2ZM16,29.3c-1.8,0-3.6-.4-5.2-1.1-1.6-.7-3-1.6-4.2-2.8-1.2-1.2-2.1-2.6-2.8-4.2-.7-1.6-1.1-3.4-1.1-5.2s.4-3.6,1.1-5.2c.7-1.6,1.6-3,2.8-4.2,1.2-1.2,2.6-2.2,4.2-2.9,1.6-.7,3.4-1,5.2-1s3.6.3,5.2,1c1.6.7,3,1.7,4.2,2.9,1.2,1.2,2.1,2.6,2.8,4.2.7,1.6,1.1,3.4,1.1,5.2s-.4,3.6-1.1,5.2c-.7,1.6-1.6,3-2.8,4.2-1.2,1.2-2.6,2.1-4.2,2.8-1.6.7-3.4,1.1-5.2,1.1ZM16,26.7c3,0,5.5-1,7.6-3.1,2.1-2.1,3.1-4.6,3.1-7.6s-1-5.5-3.1-7.6c-2.1-2.1-4.6-3.1-7.6-3.1s-5.5,1-7.5,3.1c-2.1,2.1-3.1,4.6-3.1,7.6s1,5.5,3.1,7.6c2.1,2.1,4.6,3.1,7.5,3.1Z"/>
</svg>