<?xml version="1.0" encoding="UTF-8"?>
<svg id="svg2" xmlns="http://www.w3.org/2000/svg" xmlns:svg="http://www.w3.org/2000/svg" version="1.1" viewBox="0 0 32 32">
  <!-- Generator: Adobe Illustrator 29.6.0, SVG Export Plug-In . SVG Version: 2.1.1 Build 207)  -->
  <defs>
    <style>
      .st0 {
        fill: #121111;
      }
    </style>
  </defs>
  <path id="path36" class="st0" d="M16,25c-.6,0-1-.4-1-1v-7h-7c-.6,0-1-.4-1-1h0c0-.6.4-1,1-1h7v-7c0-.6.4-1,1-1h0c.6,0,1,.4,1,1v7h7c.6,0,1,.4,1,1h0c0,.6-.4,1-1,1h-7v7c0,.6-.4,1-1,1Z"/>
</svg>