<?xml version="1.0" encoding="UTF-8" standalone="no"?>
<!-- Created with Inkscape (http://www.inkscape.org/) -->

<svg
   version="1.1"
   id="svg2"
   width="32"
   height="32"
   viewBox="0 0 32 32"
   xmlns="http://www.w3.org/2000/svg"
   xmlns:svg="http://www.w3.org/2000/svg">
  <defs
     id="defs6" />
  <g
     id="g8"
     transform="matrix(1.3333333,0,0,-1.3333333,0,32)">
    <g
       id="g10"
       transform="translate(2.5,4.949951)">
      <path
         d="m 5.75,0.200048 c -0.15,0.15 -0.225,0.329334 -0.225,0.538001 0,0.208 0.075,0.387001 0.225,0.537 L 7.2,2.700048 C 5.15,2.983382 3.437333,3.521049 2.062,4.313048 0.687333,5.104382 0,6.016716 0,7.050049 c 0,1.233333 0.916667,2.291667 2.75,3.175 1.833333,0.883333 4.083333,1.325 6.75,1.325 2.666667,0 4.916667,-0.441667 6.75,-1.325 C 18.083334,9.341716 19,8.283382 19,7.050049 19,6.266716 18.583334,5.533382 17.75,4.850049 16.916666,4.166716 15.808332,3.616715 14.424999,3.200048 14.174999,3.133382 13.958333,3.166716 13.775,3.300049 13.591666,3.433382 13.5,3.641716 13.5,3.925049 c 0,0.15 0.05433,0.295667 0.163,0.437 0.108,0.142 0.237,0.238 0.386999,0.288 C 15.15,4.983383 16,5.379382 16.6,5.838049 c 0.600001,0.458 0.9,0.862 0.9,1.212 0,0.55 -0.712332,1.187667 -2.136999,1.913 -1.425333,0.724667 -3.379667,1.087 -5.863001,1.087 -2.483334,0 -4.437333,-0.362333 -5.862,-1.087 -1.425333,-0.725333 -2.138,-1.363 -2.138,-1.913 0,-0.433334 0.487666,-0.937334 1.463,-1.512 0.974666,-0.575334 2.278667,-0.996333 3.912,-1.263 l -1.125,1.125 c -0.15,0.15 -0.225,0.329333 -0.225,0.537999 0,0.208001 0.075,0.387001 0.225,0.537001 0.133333,0.133333 0.304333,0.2 0.513,0.2 0.208,0 0.387,-0.066667 0.537,-0.2 l 2.5,-2.5 c 0.083333,-0.1 0.146,-0.2 0.188,-0.3 0.041333,-0.1 0.062,-0.208333 0.062,-0.325 C 9.55,3.216716 9.529333,3.10005 9.488,3.00005 9.446,2.900049 9.383333,2.800049 9.3,2.700048 l -2.5,-2.5 C 6.666667,0.066715 6.491666,5e-5 6.275,5e-5 6.058333,5e-5 5.883333,0.066715 5.75,0.200048 Z"
         style="fill:#1c1b1f;fill-opacity:1;fill-rule:nonzero;stroke:none"
         id="path12" />
    </g>
  </g>
</svg>
