<?xml version="1.0" encoding="UTF-8" standalone="no"?>
<!-- Created with Inkscape (http://www.inkscape.org/) -->

<svg
   version="1.1"
   id="svg2"
   width="32"
   height="32"
   viewBox="0 0 32 32"
   xmlns="http://www.w3.org/2000/svg"
   xmlns:svg="http://www.w3.org/2000/svg">
  <defs
     id="defs6" />
  <g
     id="g8"
     transform="matrix(1.3333333,0,0,-1.3333333,0,32)">
    <g
       id="g10"
       transform="translate(2,5.5)">
      <path
         d="m 3,0.75 h 14 v 1.5 H 3 Z m 14,0 c 1.115608,0 2.090071,0.27941 2.780331,0.96967 C 20.470591,2.409929 20.75,3.384392 20.75,4.5 h -1.5 C 19.25,3.615609 19.029409,3.090071 18.719669,2.78033 18.409929,2.47059 17.884392,2.25 17,2.25 Z m 3.75,3.75 v 4 h -1.5 v -4 z m 0,4 c 0,1.115608 -0.279409,2.090071 -0.969669,2.78033 C 19.090071,11.97059 18.115608,12.25 17,12.25 v -1.5 c 0.884392,0 1.409929,-0.22059 1.719669,-0.53033 C 19.029409,9.909929 19.25,9.384392 19.25,8.5 Z M 17,12.25 H 3 v -1.5 h 14 z m -14,0 C 1.884391,12.25 0.90993,11.97059 0.21967,11.28033 -0.47059,10.590071 -0.75,9.615608 -0.75,8.5 h 1.5 c 0,0.884392 0.22059,1.409929 0.53033,1.71967 C 1.59007,10.52941 2.115608,10.75 3,10.75 Z M -0.75,8.5 v -4 h 1.5 v 4 z m 0,-4 C -0.75,3.384392 -0.47059,2.409929 0.21967,1.71967 0.90993,1.02941 1.884391,0.75 3,0.75 v 1.5 C 2.115608,2.25 1.59007,2.47059 1.28033,2.78033 0.97059,3.090071 0.75,3.615609 0.75,4.5 Z"
         style="fill:#121111;fill-opacity:1;fill-rule:nonzero;stroke:none"
         id="path12" />
    </g>
    <g
       id="g14"
       transform="translate(18,10.5)">
      <path
         d="M 0.75,6.5 C 0.75,6.914214 0.414214,7.25 0,7.25 -0.414214,7.25 -0.75,6.914214 -0.75,6.5 Z m -1.5,-5 c 0,-0.414214 0.335786,-0.75 0.75,-0.75 0.414214,0 0.75,0.335786 0.75,0.75 z m 0,5 v -5 h 1.5 v 5 z"
         style="fill:#121111;fill-opacity:1;fill-rule:nonzero;stroke:none"
         id="path16" />
    </g>
    <g
       id="g18"
       transform="translate(6,11.5)">
      <path
         d="M 0.75,5.5 C 0.75,5.914214 0.414214,6.25 0,6.25 -0.414214,6.25 -0.75,5.914214 -0.75,5.5 Z m -1.5,-4 c 0,-0.414214 0.335786,-0.75 0.75,-0.75 0.414214,0 0.75,0.335786 0.75,0.75 z m 0,4 v -4 h 1.5 v 4 z"
         style="fill:#121111;fill-opacity:1;fill-rule:nonzero;stroke:none"
         id="path20" />
    </g>
    <g
       id="g22"
       transform="translate(10,10.491699)">
      <path
         d="M 0.799963,6.500801 C 0.804105,6.914994 0.471693,7.254121 0.0575,7.258263 -0.356693,7.262405 -0.69582,6.929993 -0.699962,6.5158 Z M -0.749963,1.5158 C -0.754104,1.101608 -0.421693,0.76248 -0.0075,0.758338 0.406693,0.754196 0.745821,1.086608 0.749963,1.500801 Z m 0.050001,5 -0.050001,-5 1.499926,-0.014999 0.05,5 z"
         style="fill:#121111;fill-opacity:1;fill-rule:nonzero;stroke:none"
         id="path24" />
    </g>
    <g
       id="g26"
       transform="translate(14,12.5)">
      <path
         d="M 0.75,4.5 C 0.75,4.914214 0.414214,5.25 0,5.25 -0.414214,5.25 -0.75,4.914214 -0.75,4.5 Z m -1.5,-3 c 0,-0.414214 0.335786,-0.75 0.75,-0.75 0.414214,0 0.75,0.335786 0.75,0.75 z m 0,3 v -3 h 1.5 v 3 z"
         style="fill:#121111;fill-opacity:1;fill-rule:nonzero;stroke:none"
         id="path28" />
    </g>
  </g>
</svg>
