<?xml version="1.0" encoding="UTF-8" standalone="no"?>
<!-- Created with Inkscape (http://www.inkscape.org/) -->

<svg
   version="1.1"
   id="svg2"
   width="221.04297"
   height="523.99982"
   viewBox="0 0 221.04297 523.99982"
   xmlns="http://www.w3.org/2000/svg"
   xmlns:svg="http://www.w3.org/2000/svg">
  <defs
     id="defs6" />
  <g
     id="g8"
     transform="matrix(1.3333333,0,0,-1.3333333,0,523.99984)">
    <g
       id="g10"
       transform="translate(29.878052,331.60565)">
      <path
         d="m 30.564228,1.063095 c -0.797327,0.797329 -1.195993,1.75058 -1.195993,2.859749 0,1.105629 0.398666,2.05711 1.195993,2.854439 l 7.707501,7.574608 C 27.374916,15.857952 18.271206,18.715931 10.960597,22.925819 3.653532,27.132168 0,31.981693 0,37.474396 c 0,6.555805 4.872558,12.181396 14.617674,16.87677 9.745117,4.695373 21.70503,7.04306 35.879747,7.04306 14.174713,0 26.134629,-2.347687 35.879746,-7.04306 9.745117,-4.695374 14.617673,-10.320965 14.617673,-16.87677 0,-4.163822 -2.214795,-8.061869 -6.644399,-11.694138 -4.429596,-3.632271 -10.320969,-6.555809 -17.674103,-8.770607 -1.328872,-0.35437 -2.480568,-0.177185 -3.455078,0.531552 -0.974518,0.708736 -1.461769,1.816135 -1.461769,3.3222 0,0.797325 0.288811,1.571621 0.866432,2.32288 0.574074,0.754807 1.259773,1.265095 2.057099,1.530872 5.847068,1.77184 10.365264,3.876782 13.55458,6.314833 3.189308,2.434508 4.783959,4.581976 4.783959,6.442408 0,2.923534 -3.786415,6.313064 -11.359253,10.168586 -7.576386,3.851979 -17.964684,5.777966 -31.164887,5.777966 -13.200203,0 -23.586725,-1.925987 -31.159567,-5.777966 C 11.761469,43.78746 7.973277,40.39793 7.973277,37.474396 c 0,-2.303391 2.592199,-4.982414 7.776602,-8.037064 5.180858,-3.058193 12.112294,-5.296024 20.794307,-6.713497 l -5.979958,5.979958 c -0.797327,0.797329 -1.195993,1.750572 -1.195993,2.859745 0,1.105629 0.398666,2.057106 1.195993,2.854438 0.708736,0.708733 1.617687,1.063103 2.726856,1.063103 1.105629,0 2.05711,-0.35437 2.854439,-1.063103 L 49.434319,21.129177 c 0.442958,-0.531551 0.776062,-1.063103 0.999313,-1.594654 0.219711,-0.531551 0.329567,-1.107399 0.329567,-1.727543 0,-0.708736 -0.109856,-1.328876 -0.329567,-1.860428 -0.223251,-0.531551 -0.556355,-1.06311 -0.999313,-1.594661 L 36.145523,1.063095 C 35.436787,0.354359 34.506569,0 33.354874,0 32.203178,0 31.272964,0.354359 30.564228,1.063095 Z"
         style="fill:#121111;fill-opacity:1;fill-rule:nonzero;stroke:none"
         id="path12" />
    </g>
    <g
       id="g14">
      <path
         d="m 82.901543,254.11389 c 19.828007,0 35.890577,16.06256 35.890577,35.89057 0,19.82803 -16.06257,35.89059 -35.890577,35.89059 -19.827999,0 -35.890572,-16.06256 -35.890572,-35.89059 0,-19.82801 16.062573,-35.89057 35.890572,-35.89057 z m 46.578197,-24.7276 34.40013,-64.29343 c 4.16761,-7.99601 1.38386,-17.72969 -7.33155,-21.8973 -2.42994,-1.39826 -5.2129,-2.09061 -7.64291,-2.09061 -5.56609,0 -11.47142,3.12224 -14.25439,8.68831 L 114.49136,187.6673 130.4834,20.851898 C 131.52878,10.425934 123.88585,1.045258 113.45989,-3.1e-5 h -1.73767 c -9.71978,0 -17.715865,7.289826 -18.761168,17.023499 L 82.535088,125.11292 72.109116,17.023468 C 71.416832,7.30368 63.081623,-3.1e-5 53.347939,-3.1e-5 h -1.73766 C 41.184311,1.045349 33.541454,10.425934 34.586761,20.851898 L 50.578808,187.6673 30.419159,149.79326 c -2.783037,-5.56594 -8.349115,-8.68831 -14.254381,-8.68831 -2.429946,0 -5.212919,0.7059 -7.642934,2.09061 -7.982259,4.16761 -10.765156,13.90129 -6.597549,21.8973 l 34.060927,64.29343 c 6.258362,11.81055 18.421993,19.11427 31.630997,19.11427 H 97.84874 c 13.20901,0 25.37263,-7.30372 31.631,-19.11427 z"
         style="fill:#121111;fill-opacity:1;fill-rule:evenodd;stroke:none"
         id="path16" />
    </g>
  </g>
</svg>
