<?xml version="1.0" encoding="UTF-8" standalone="no"?>
<!-- Created with Inkscape (http://www.inkscape.org/) -->

<svg
   version="1.1"
   id="svg2"
   width="32"
   height="32"
   viewBox="0 0 32 32"
   xmlns="http://www.w3.org/2000/svg"
   xmlns:svg="http://www.w3.org/2000/svg">
  <defs
     id="defs6" />
  <g
     id="g8"
     transform="matrix(1.3333333,0,0,-1.3333333,0,32)">
    <g
       id="g10"
       transform="translate(7.5,3)">
      <path
         d="m 4.578881,14.035327 c 1.095156,0 1.982337,0.88718 1.982337,1.982337 C 6.561218,17.11282 5.674037,18 4.578881,18 3.483725,18 2.596545,17.11282 2.596545,16.017664 c 0,-1.095157 0.88718,-1.982337 1.982336,-1.982337 z M 7.151525,12.669543 9.051541,9.118437 C 9.28173,8.676795 9.127975,8.139177 8.646599,7.908989 8.512386,7.831758 8.358676,7.793518 8.22446,7.793518 c -0.30743,0 -0.633599,0.172449 -0.78731,0.479879 L 6.323677,10.365286 7.206961,1.151608 C 7.2647,0.575752 6.84256,0.057632 6.266705,-1.03e-4 H 6.170729 c -0.53685,0 -0.978496,0.402637 -1.036231,0.940256 L 4.558642,6.910233 3.982787,0.940153 C 3.944551,0.403303 3.484174,-1.03e-4 2.946555,-1.03e-4 H 2.85058 C 2.274724,0.057636 1.852588,0.575752 1.910323,1.151608 L 2.793608,10.365286 1.680135,8.273397 C 1.52642,7.965975 1.21899,7.793518 0.892826,7.793518 c -0.134213,0 -0.287924,0.038989 -0.422141,0.115471 -0.440882,0.230188 -0.594589,0.767806 -0.364401,1.209448 l 1.88128,3.551106 c 0.345667,0.652329 1.017498,1.055734 1.747068,1.055734 h 1.669827 c 0.729569,0 1.4014,-0.403405 1.747066,-1.055734 z"
         style="fill:#121111;fill-opacity:1;fill-rule:evenodd;stroke:none"
         id="path12" />
    </g>
  </g>
</svg>
