<?xml version="1.0" encoding="UTF-8" standalone="no"?>
<!-- Created with Inkscape (http://www.inkscape.org/) -->

<svg
   version="1.1"
   id="svg2"
   width="32"
   height="32"
   viewBox="0 0 32 32"
   xmlns="http://www.w3.org/2000/svg"
   xmlns:svg="http://www.w3.org/2000/svg">
  <defs
     id="defs6" />
  <g
     id="g8"
     transform="matrix(1.3333333,0,0,-1.3333333,0,32)">
    <g
       id="g10"
       transform="translate(5.500008,6.09993)">
      <path
         d="m 0.721175,3.400082 c -0.210267,0 -0.383025,0.067633 -0.518275,0.2029 C 0.067633,3.738232 0,3.910991 0,4.121257 v 3.5576 c 0,0.210267 0.067633,0.383025 0.2029,0.518275 0.13525,0.135266 0.308008,0.2029 0.518275,0.2029 h 2.990349 l 3.0615,3.061476 c 0.226916,0.226917 0.488133,0.281083 0.78365,0.1625 0.295516,-0.118584 0.443275,-0.338134 0.443275,-0.65865 V 0.844382 C 7.999949,0.517448 7.85219,0.294689 7.556674,0.176106 7.261157,0.057523 6.99994,0.11169 6.773024,0.338607 l -3.0615,3.061475 z m 9.298022,-1.29615 v 7.626876 c 0.752551,-0.302567 1.354151,-0.80545 1.804801,-1.508651 0.450634,-0.7032 0.675951,-1.477233 0.675951,-2.3221 0,-0.861534 -0.225317,-1.633958 -0.675951,-2.317274 -0.45065,-0.683334 -1.05225,-1.176284 -1.804801,-1.478851 z M 6.865348,9.821182 4.223049,7.265432 H 1.1346 V 4.534682 H 4.223049 L 6.865348,1.963531 Z"
         style="fill:#1c1b1f;fill-opacity:1;fill-rule:nonzero;stroke:none"
         id="path12" />
    </g>
  </g>
</svg>
