<?xml version="1.0" encoding="UTF-8" standalone="no"?>
<!-- Created with Inkscape (http://www.inkscape.org/) -->

<svg
   version="1.1"
   id="svg2"
   width="28"
   height="28"
   viewBox="0 0 28 28"
   xmlns="http://www.w3.org/2000/svg"
   xmlns:svg="http://www.w3.org/2000/svg">
  <defs
     id="defs6" />
  <g
     id="g8"
     transform="matrix(1.3333333,0,0,-1.3333333,0,28)">
    <g
       id="g10"
       transform="translate(2.021484,1.899902)">
      <path
         d="M 14.556198,0.18996 12.378781,2.367374 C 12.197043,2.261936 12.016713,2.161539 11.83779,2.066179 11.658867,1.970833 11.471253,1.882209 11.274947,1.800309 11.056197,1.7117 10.852315,1.738346 10.663301,1.880241 10.474286,2.022152 10.379779,2.21874 10.379779,2.470012 c 0,0.121158 0.03617,0.226887 0.108521,0.317187 0.07235,0.090301 0.161809,0.159009 0.268384,0.206128 0.116666,0.04375 0.231088,0.092547 0.343263,0.146388 0.112189,0.053842 0.222126,0.112737 0.329809,0.176685 L 8.29321,6.452947 V 4.57174 C 8.29321,4.217263 8.131393,3.97187 7.80776,3.835561 7.484126,3.699265 7.19779,3.755635 6.94875,4.004675 L 4.540838,6.412565 H 2.084122 c -0.225473,0 -0.413649,0.075448 -0.564528,0.226341 -0.15088,0.150879 -0.226319,0.339056 -0.226319,0.564529 v 2.793218 c 0,0.225473 0.075439,0.41365 0.226319,0.564529 0.150879,0.150893 0.339055,0.226339 0.564528,0.226339 h 1.874512 l -3.772606,3.772608 c -0.121143,0.121144 -0.183123,0.273422 -0.185937,0.456838 -0.0028,0.183399 0.059179,0.338486 0.185937,0.465259 0.126759,0.126758 0.280445,0.190137 0.46106,0.190137 0.1806,0 0.334279,-0.06338 0.461037,-0.190137 L 15.478294,1.112056 c 0.121145,-0.121144 0.183114,-0.273423 0.185914,-0.456838 0.0028,-0.183414 -0.05916,-0.3385 -0.185914,-0.465258 -0.126773,-0.126758 -0.280459,-0.190137 -0.461059,-0.190137 -0.1806,0 -0.334279,0.063379 -0.461037,0.190137 z m -3.281251,15.253569 c 1.39214,-0.575488 2.510842,-1.476008 3.356107,-2.701563 0.845264,-1.225554 1.267897,-2.598903 1.267897,-4.120047 0,-0.767303 -0.114144,-1.504038 -0.342431,-2.210207 C 15.328232,5.705543 15.005998,5.054624 14.589818,4.458953 l -0.940603,0.940581 c 0.304004,0.474528 0.536223,0.983545 0.696654,1.527051 0.160417,0.543521 0.240624,1.108631 0.240624,1.695334 0,1.26089 -0.349438,2.397544 -1.048316,3.409962 -0.698876,1.012419 -1.626041,1.751963 -2.781493,2.218629 -0.121158,0.04712 -0.214266,0.119475 -0.279321,0.217066 -0.06506,0.09759 -0.09758,0.206966 -0.09758,0.328125 0,0.242302 0.09451,0.433001 0.283522,0.572097 0.189014,0.139095 0.392896,0.164339 0.611646,0.07573 z m 0.636037,-8.305763 -1.531205,1.531227 v 3.171898 c 0.590056,-0.320833 1.046054,-0.772633 1.367996,-1.355396 0.321956,-0.58278 0.482935,-1.211264 0.482935,-1.885451 0,-0.258023 -0.02665,-0.509586 -0.07993,-0.754688 C 12.09749,7.60024 12.017559,7.364376 11.910984,7.137766 Z M 8.29321,10.755541 6.405243,12.651929 6.94875,13.195414 c 0.24904,0.249039 0.535376,0.30541 0.85901,0.169115 0.323633,-0.136311 0.48545,-0.381705 0.48545,-0.736182 z M 6.980731,5.843794 V 7.765425 L 5.271113,9.475044 H 2.605731 v -1.75 h 2.49375 z"
         style="fill:#121111;fill-opacity:1;fill-rule:nonzero;stroke:none"
         id="path12" />
    </g>
  </g>
</svg>
