<?xml version="1.0" encoding="UTF-8" standalone="no"?>
<!-- Created with Inkscape (http://www.inkscape.org/) -->

<svg
   version="1.1"
   id="svg2"
   width="32"
   height="32"
   viewBox="0 0 32 32"
   xmlns="http://www.w3.org/2000/svg"
   xmlns:svg="http://www.w3.org/2000/svg">
  <defs
     id="defs6" />
  <g
     id="g8"
     transform="matrix(1.3333333,0,0,-1.3333333,0,32)">
    <g
       id="g10"
       transform="translate(7.500028,6.100281)">
      <path
         d="m 0.721175,3.399738 c -0.208667,0 -0.381025,0.068034 -0.517075,0.2041 C 0.068033,3.739888 0,3.912247 0,4.120914 v 3.557599 c 0,0.208666 0.068033,0.381024 0.2041,0.517074 0.13605,0.136067 0.308408,0.2041 0.517075,0.2041 h 2.990349 l 3.0615,3.061475 c 0.226916,0.226916 0.488133,0.280583 0.78365,0.160999 0.295516,-0.119583 0.443275,-0.338634 0.443275,-0.657149 V 0.84404 C 7.999949,0.519107 7.85219,0.296847 7.556674,0.177264 7.261157,0.057681 6.99994,0.111348 6.773024,0.338264 l -3.0615,3.061474 z M 6.865348,9.820837 4.223049,7.265087 H 1.1346 V 4.534338 H 4.223049 L 6.865348,1.963189 Z"
         style="fill:#1c1b1f;fill-opacity:1;fill-rule:nonzero;stroke:none"
         id="path12" />
    </g>
  </g>
</svg>
