<?xml version="1.0" encoding="UTF-8" standalone="no"?>
<!-- Created with Inkscape (http://www.inkscape.org/) -->

<svg
   version="1.1"
   id="svg2"
   width="32"
   height="32"
   viewBox="0 0 32 32"
   xmlns="http://www.w3.org/2000/svg"
   xmlns:svg="http://www.w3.org/2000/svg">
  <defs
     id="defs6" />
  <g
     id="g8"
     transform="matrix(1.3333333,0,0,-1.3333333,0,32)">
    <g
       id="g10"
       transform="translate(3.653969,4.041229)">
      <path
         d="m 11.184549,0.101108 c -0.19615,-0.070517 -0.378517,-0.043116 -0.5471,0.082201 -0.168584,0.125316 -0.252875,0.29775 -0.252875,0.5173 0,0.100316 0.02948,0.190215 0.08845,0.269699 0.05897,0.079483 0.135884,0.132692 0.23075,0.159625 1.458983,0.533333 2.632699,1.422433 3.521149,2.6673 0.888467,1.244866 1.3327,2.640374 1.3327,4.186523 0,1.546149 -0.444233,2.944224 -1.3327,4.194224 -0.88845,1.249999 -2.062166,2.136532 -3.521149,2.6596 -0.101266,0.02693 -0.179783,0.08487 -0.235549,0.173824 -0.05577,0.08895 -0.08365,0.183683 -0.08365,0.2842 0,0.2113 0.08685,0.376892 0.26055,0.496774 0.173717,0.119868 0.353525,0.147751 0.539425,0.08365 1.6487,-0.626933 2.978815,-1.654433 3.990348,-3.082499 1.011533,-1.428084 1.517301,-3.031341 1.517301,-4.809774 0,-1.778433 -0.505768,-3.381691 -1.517301,-4.809773 C 14.163364,1.745916 12.833249,0.721624 11.184549,0.101108 Z M 0.72115,5.458781 c -0.20865,0 -0.381009,0.068033 -0.517075,0.2041 C 0.068025,5.798931 0,5.971291 0,6.179957 v 3.557599 c 0,0.208666 0.068025,0.381024 0.204075,0.517074 0.136066,0.136067 0.308425,0.2041 0.517075,0.2041 h 2.990349 l 3.0615,3.061475 c 0.226917,0.226916 0.488133,0.278982 0.78365,0.156199 0.295516,-0.1228 0.443275,-0.340249 0.443275,-0.652349 V 2.903083 C 7.999924,2.584566 7.852165,2.363908 7.556649,2.241108 7.261132,2.118325 6.999916,2.170391 6.772999,2.397307 l -3.0615,3.061474 z m 9.298049,-1.296148 v 7.626872 c 0.75255,-0.302567 1.354141,-0.80545 1.804775,-1.50865 0.450633,-0.703199 0.67595,-1.477232 0.67595,-2.322099 0,-0.861533 -0.225317,-1.633957 -0.67595,-2.317274 C 11.37334,4.958149 10.771749,4.465199 10.019199,4.162633 Z M 6.865324,11.87988 4.22305,9.324131 H 1.134575 V 6.593382 H 4.22305 L 6.865324,4.022233 Z"
         style="fill:#1c1b1f;fill-opacity:1;fill-rule:nonzero;stroke:none"
         id="path12" />
    </g>
  </g>
</svg>
